<svg xmlns="http://www.w3.org/2000/svg" width="1112" height="447" fill="none"><path d="M34.175 220.321a2.032 2.032 0 002.877-.001l4.611-4.608a2.035 2.035 0 000-2.879l-6.132-6.129a2.035 2.035 0 00-2.876 0l-4.61 4.609a2.032 2.032 0 000 2.876l6.13 6.132z" fill="#fff"/><path d="M34.175 220.321l-1.412 1.415a4.03 4.03 0 002.852 1.18 4.027 4.027 0 002.854-1.184l-.003.003 4.61-4.608a4.036 4.036 0 000-5.708l-6.13-6.13a4.035 4.035 0 00-5.706.002l-4.609 4.608a4.028 4.028 0 000 5.705l6.13 6.131 1.414-1.414 1.415-1.414-6.13-6.132-.011-.024.01-.022 4.61-4.612.024-.009.024.009 6.131 6.131.011.024-.01.025-4.611 4.608-.002.003-.021.008-.026-.011-1.413 1.416" fill="#070707"/><path d="M37.413 244.752l5.74-.001z" fill="#fff"/><path d="M37.413 246.752l5.741-.001a2 2 0 100-4l-5.741.001a2 2 0 100 4" fill="#070707"/><path d="M99.78 220.323a2.038 2.038 0 01-2.877 0l-4.609-4.611a2.035 2.035 0 010-2.877l6.133-6.13a2.034 2.034 0 012.875 0l4.608 4.608a2.038 2.038 0 010 2.879l-6.13 6.131z" fill="#fff"/><path d="M99.78 220.323l-1.412-1.418-.028.012-.023-.009-4.608-4.611-.01-.024.008-.022 6.134-6.131.025-.011.019.007.003.004 4.608 4.608.01.024-.012.027-6.128 6.129.002-.003 1.412 1.418 1.414 1.413 6.131-6.129a4.036 4.036 0 000-5.708l-4.609-4.608.003.004a4.024 4.024 0 00-2.853-1.186 4.036 4.036 0 00-2.853 1.183l-6.133 6.129a4.027 4.027 0 00-1.182 2.852 4.029 4.029 0 001.183 2.854l4.606 4.609a4.038 4.038 0 005.704.003l.003-.003-1.414-1.413m-42.161-28.898v12.791a5.007 5.007 0 005 5.003l9.617-.003a5.002 5.002 0 005-5.001l.002-12.79a2 2 0 10-4 0l-.002 12.788a.998.998 0 01-1 1.003l-9.616.003a1.008 1.008 0 01-1.002-1.003v-12.791a2 2 0 10-4 0z" fill="#070707"/><path d="M85.45 180.287v-2H49.407a2.01 2.01 0 00-1.414.586 2.01 2.01 0 00-.586 1.414v9.932c0 .526.213 1.041.586 1.413.373.373.888.587 1.414.587l36.046-.002c.527 0 1.042-.214 1.414-.586.373-.372.586-.888.586-1.415l-.001-9.929a2 2 0 00-2-2v2l-2 .001v7.928l-32.045.001v-5.93H85.45v-2l-2 .001 2-.001" fill="#070707"/><path d="M722.481 414.184l32.142 32.004a1.998 1.998 0 002.825-.004l85.519-85.519a1.99 1.99 0 00.585-1.414v-52.247c0-.533-.208-1.036-.585-1.413l-52.262-52.262a1.99 1.99 0 00-1.414-.585c-.535 0-1.039.209-1.416.588l-86.702 86.981a2 2 0 102.834 2.823l85.286-85.561 50.259 50.258v50.59l-83.521 83.522-30.727-30.596a1.999 1.999 0 10-2.821 2.835" fill="#000"/><path d="M841.552 307.004l1.417-1.411-.032-.032a1.99 1.99 0 00-1.416-.589 1.992 1.992 0 00-1.416.585l-26.068 26.067a2 2 0 000 2.828l26.1 26.101a2.002 2.002 0 003.415-1.415v-52.134a2.01 2.01 0 00-.583-1.411l-1.417 1.411h-2v47.307l-21.272-21.273 24.653-24.651-1.413-1.415-1.419 1.411.034.031 1.417-1.41h-2 2M733.82 352.725l1.789-.893-.001-.003a2.001 2.001 0 00-3.088-.627c-.845.717-.997.765-1.571 1.157-.28.19-.61.44-1.005.785-.397.348-.872.796-1.511 1.44a27.916 27.916 0 00-8.126 19.703c0 .534.208 1.037.585 1.415a1.99 1.99 0 001.415.586l25.837-.003c.527 0 1.041-.213 1.415-.585l18.429-18.427a1.99 1.99 0 00.585-1.418c0-.535-.212-1.041-.59-1.417a27.914 27.914 0 00-19.7-8.119 27.886 27.886 0 00-15.578 4.746l1.115 1.66 1.789-.893-1.789.893 1.116 1.66a23.903 23.903 0 0113.347-4.068 23.912 23.912 0 0116.882 6.962l1.41-1.42-1.415-1.415-17.844 17.841-25.009.003v2l2 .001c.005-6.599 2.662-12.548 6.965-16.888.596-.6 1.009-.988 1.303-1.244.448-.386.582-.464.938-.7.36-.234.872-.584 1.606-1.213l-1.3-1.521-1.79.895.002.002a2.01 2.01 0 001.28 1.04c.552.145 1.15.044 1.625-.275l-1.116-1.66" fill="#000"/><path d="M748.144 374.285l-25.837.003.004.004c.002 10.091 5.758 18.831 14.166 23.133" fill="#3B94EC"/><path d="M748.144 372.285l-25.837.003a1.998 1.998 0 00-1.414 3.414l.004.005 1.414-1.415-2 .001c.004 10.864 6.202 20.284 15.256 24.912l1.822-3.56c-7.765-3.976-13.077-12.038-13.078-21.353 0-.527-.214-1.041-.586-1.413l-.004-.004-1.414 1.413v2l25.837-.003v-4" fill="#000"/><path d="M756.764 400.983c11.864-3.766 19.528-14.76 19.528-26.666a27.921 27.921 0 00-1.387-8.681 2.01 2.01 0 00-.682-.965l-.034-.027-1.218 1.585 1.9-.62a28.01 28.01 0 00-6.89-11.166 1.996 1.996 0 00-2.824.004l-18.426 18.425a2 2 0 102.828 2.828l18.426-18.424-1.413-1.415-1.411 1.419a24.026 24.026 0 015.908 9.571c.123.38.364.72.682.963l.033.027 1.22-1.585-1.901.62a23.987 23.987 0 011.19 7.441c0 10.191-6.574 19.636-16.737 22.852a2.003 2.003 0 00-1.303 2.512 2.002 2.002 0 002.511 1.302" fill="#000"/><path d="M748.144 374.285l-11.667 23.14a25.868 25.868 0 0011.806 2.839c2.734 0 5.37-.427 7.849-1.21l-7.988-24.769z" fill="#D8DBD7"/><path d="M748.144 374.285l-1.785-.9-11.667 23.139a2.004 2.004 0 00.877 2.683 27.87 27.87 0 0012.696 3.057h.02l-.014-1.788-.094 1.785.108.003-.014-1.788-.094 1.785.106.003c2.941 0 5.784-.458 8.453-1.305a1.998 1.998 0 001.299-2.521l-7.987-24.766a2.006 2.006 0 00-1.749-1.38 2.005 2.005 0 00-1.94 1.093l1.785.9-1.903.615 7.987 24.767 1.904-.613-.604-1.907a23.963 23.963 0 01-7.245 1.117v2l.105-1.997-.115-.003h-.018l.01 1.492v-1.492h-.01l.01 1.492v-1.492a23.869 23.869 0 01-10.878-2.62l-.91 1.781 1.787.9 11.667-23.138-1.787-.902-1.903.615 1.903-.615m20.769-64.792l44.012 44.013a2 2 0 002.828-2.828l-44.01-44.014a2.004 2.004 0 00-2.83 0 2.003 2.003 0 000 2.829m-7.97 7.971l44.01 44.013c.78.782 2.047.782 2.828 0a1.998 1.998 0 000-2.828l-44.01-44.013a2 2 0 10-2.828 2.828zm-7.972 7.972l44.01 44.012a2 2 0 002.828-2.828L755.8 322.607a2 2 0 00-2.829 2.829m195.413 82.173a41.31 41.31 0 01-12.516-1.93 2 2 0 10-1.212 3.811 45.225 45.225 0 0013.728 2.118 2 2 0 100-3.999zm-23.849-7.58a41.56 41.56 0 01-9.098-8.816 2 2 0 10-3.189 2.413 45.55 45.55 0 009.973 9.667 2.001 2.001 0 002.314-3.264zm-15.102-19.965a41.204 41.204 0 01-2.324-12.445 1.999 1.999 0 10-3.997.124 45.21 45.21 0 002.549 13.652 2 2 0 003.772-1.331zm-2.344-25.717v-2.821c0-3.749-.456-7.397-1.317-10.886a2 2 0 10-3.883.959 41.396 41.396 0 011.2 9.927v2.821a2 2 0 004 0zm-6.688-26.522a45.522 45.522 0 00-8.998-10.578 2 2 0 10-2.616 3.025 41.562 41.562 0 018.208 9.649 2 2 0 103.406-2.096zm-20.772-17.948a44.999 44.999 0 00-13.461-3.437 2 2 0 10-.381 3.981 41.012 41.012 0 0112.266 3.134 2.001 2.001 0 001.576-3.678" fill="#000"/><path d="M196.52 316.918c0 11.619-9.423 21.035-21.043 21.035-11.617 0-21.036-9.416-21.036-21.035 0-11.621 9.419-21.039 21.036-21.039 11.62 0 21.043 9.418 21.043 21.039z" fill="#D8DBD7"/><path d="M173.477 302.767v28.301a2 2 0 004 0v-28.301a2 2 0 10-4 0z" fill="#000"/><path d="M189.629 314.918h-28.301a2 2 0 000 4h28.301a2 2 0 000-4z" fill="#000"/><path d="M1037 226.237c0 11.687-9.47 21.158-21.16 21.158s-21.157-9.471-21.157-21.158c0-11.686 9.467-21.16 21.157-21.16s21.16 9.474 21.16 21.16z" fill="#D8DBD7"/><path d="M1026.78 224.237h-21.88c-1.11 0-2 .896-2 2 0 1.106.89 2 2 2h21.88c1.11 0 2-.894 2-2 0-1.104-.89-2-2-2zm-85.135 90.681h-14.608a2 2 0 000 4h14.608a2 2 0 000-4z" fill="#000"/><path d="M948.467 316.918h-2a12.075 12.075 0 01-3.552 8.569 12.077 12.077 0 01-8.574 3.55 12.072 12.072 0 01-8.57-3.55 12.076 12.076 0 01-3.55-8.569 12.083 12.083 0 013.55-8.573 12.072 12.072 0 018.57-3.55 12.077 12.077 0 018.574 3.55 12.081 12.081 0 013.552 8.573h3.998c0-8.907-7.218-16.122-16.124-16.123-8.904.001-16.118 7.217-16.12 16.123.002 8.903 7.216 16.118 16.12 16.119 8.906-.001 16.123-7.216 16.124-16.119h-1.998m-720.983 55.778l-38.993 38.173-37.019-36.291a1.997 1.997 0 00-2.815.014l-41.432 41.431 1.415 1.414v-2h-.5v2l1.4-1.429-66.42-65.113a1.997 1.997 0 00-2.814.013L.586 390.626a2 2 0 002.828 2.83l38.32-38.32 65.005 63.73c.376.367.874.571 1.401.571h.5c.526 0 1.041-.214 1.413-.586l40.032-40.031 37.004 36.277c.776.76 2.023.76 2.8 0l40.392-39.542a2 2 0 00-2.797-2.859z" fill="#000"/><path d="M160.543 375.872c0 5.89-4.776 10.666-10.667 10.666s-10.667-4.776-10.667-10.666c0-5.891 4.776-10.667 10.667-10.667s10.667 4.776 10.667 10.667m38.444 38c0 5.89-4.776 10.666-10.667 10.666s-10.667-4.776-10.667-10.666c0-5.891 4.776-10.667 10.667-10.667s10.667 4.776 10.667 10.667m-80.622 3.565c0 5.891-4.776 10.667-10.667 10.667s-10.667-4.776-10.667-10.667c0-5.89 4.776-10.666 10.667-10.666s10.667 4.776 10.667 10.666zm-65.94-64.704c0 5.891-4.775 10.667-10.666 10.667-5.89 0-10.667-4.776-10.667-10.667 0-5.89 4.777-10.666 10.667-10.666s10.666 4.776 10.666 10.666z" fill="#3B94EC"/><path d="M867.168 389.212v15.219a2 2 0 004 0v-15.219a2 2 0 00-4 0z" fill="#000"/><path d="M876.777 394.821h-15.218a2 2 0 100 4h15.218a2 2 0 000-4zM744.441 160.724v15.22a2 2 0 004 0v-15.22a2 2 0 00-4 0z" fill="#000"/><path d="M754.051 166.333h-15.219a2 2 0 000 4h15.219a2 2 0 100-4zM269.713 427.431v-2c-5.432-.002-10.344-2.206-13.917-5.775-3.571-3.573-5.775-8.484-5.775-13.915 0-5.432 2.204-10.344 5.775-13.918 3.573-3.571 8.485-5.775 13.917-5.775s10.344 2.204 13.918 5.775c3.57 3.574 5.774 8.486 5.776 13.918-.002 5.431-2.206 10.342-5.776 13.915-3.574 3.569-8.486 5.773-13.918 5.775v4c13.07-.005 23.69-10.624 23.694-23.69-.004-13.069-10.624-23.691-23.694-23.693-13.069.002-23.689 10.624-23.692 23.693.004 13.066 10.623 23.685 23.692 23.69v-2" fill="#000"/><path d="M267.713 390.444v30.591a2 2 0 004 0v-30.591a2 2 0 10-4 0z" fill="#000"/><path d="M279.904 400.176c.004-2.133-.804-4.228-2.373-5.753-1.566-1.534-3.846-2.428-6.49-2.421h-2.965c-2.636.005-4.857.95-6.34 2.454a7.671 7.671 0 00-2.229 5.417c-.002 1.738.594 3.495 1.826 4.876 1.227 1.387 3.088 2.322 5.294 2.495.55.043 1.28.048 2.049.049 1.197 0 2.4-.025 2.408-.025l-.043-1.999.022 2 .07-.001c1.964.008 3.099.56 3.792 1.212.687.66 1.02 1.524 1.026 2.508.004 1.062-.432 2.208-1.244 3.048-.819.837-1.967 1.428-3.666 1.439h-2.954c-1.607-.01-2.691-.538-3.446-1.286-.746-.752-1.162-1.776-1.165-2.892a2 2 0 00-3.999 0c-.002 2.123.81 4.187 2.328 5.714 1.514 1.532 3.734 2.472 6.282 2.464h2.954c2.708.009 5.015-1.056 6.55-2.668a8.447 8.447 0 002.36-5.819c.006-1.936-.72-3.932-2.266-5.403-1.541-1.476-3.814-2.325-6.552-2.317l-.113.001H271c-.001 0-.292.007-.731.012-.438.007-1.022.012-1.593.012-.715.002-1.451-.012-1.723-.036-1.32-.118-2.101-.585-2.636-1.17-.528-.591-.81-1.376-.81-2.214 0-.937.358-1.886 1.065-2.597.713-.705 1.783-1.253 3.525-1.274h-.01 2.954c1.788.01 2.939.555 3.698 1.286.753.737 1.16 1.73 1.165 2.888a2 2 0 104 0M744.749 266.64v-2c-5.433-.001-10.345-2.205-13.918-5.775-3.57-3.573-5.775-8.484-5.775-13.914 0-5.432 2.205-10.344 5.775-13.918 3.573-3.57 8.485-5.776 13.918-5.776 5.431 0 10.343 2.206 13.918 5.776 3.569 3.574 5.773 8.486 5.774 13.918-.001 5.43-2.205 10.341-5.774 13.914-3.574 3.57-8.486 5.774-13.918 5.775v4c13.07-.004 23.688-10.623 23.692-23.689-.004-13.07-10.622-23.69-23.692-23.694-13.07.004-23.689 10.624-23.693 23.694.004 13.066 10.623 23.685 23.693 23.689v-2" fill="#000"/><path d="M742.749 229.653v30.591a2 2 0 004 0v-30.591a2 2 0 00-4 0z" fill="#000"/><path d="M754.939 239.387c.005-2.135-.803-4.23-2.374-5.755-1.564-1.533-3.844-2.428-6.488-2.419h-2.965c-2.636.004-4.859.948-6.341 2.452a7.688 7.688 0 00-2.23 5.418c-.001 1.737.595 3.496 1.827 4.877 1.227 1.385 3.089 2.321 5.295 2.493.549.043 1.278.05 2.046.051 1.198 0 2.402-.025 2.41-.025l-.042-2 .016 2 .075-.002c1.964.01 3.099.56 3.791 1.214.688.66 1.021 1.522 1.026 2.506.004 1.063-.432 2.208-1.245 3.048-.819.838-1.965 1.43-3.663 1.439h-2.954c-1.607-.008-2.692-.537-3.446-1.284-.748-.753-1.164-1.777-1.165-2.893a2 2 0 00-4 0c-.003 2.124.809 4.188 2.329 5.713 1.512 1.532 3.732 2.473 6.282 2.464h2.954c2.707.011 5.014-1.055 6.548-2.668a8.436 8.436 0 002.36-5.819c.007-1.934-.72-3.932-2.265-5.401-1.541-1.477-3.815-2.327-6.552-2.317h-.133c-.002 0-.292.006-.731.012-.44.006-1.024.013-1.595.013-.713.001-1.448-.013-1.721-.037-1.321-.119-2.101-.584-2.636-1.171-.528-.591-.809-1.376-.811-2.213 0-.938.359-1.887 1.067-2.598.712-.704 1.781-1.253 3.525-1.272h-.01 2.954c1.788.008 2.939.554 3.698 1.284.752.738 1.158 1.731 1.164 2.89a2 2 0 104 0m253.771-82.391h-2c0 4.751-1.92 9.035-5.03 12.151a17.136 17.136 0 01-12.155 5.033 17.12 17.12 0 01-12.152-5.033 17.122 17.122 0 01-5.033-12.151 17.122 17.122 0 015.033-12.152 17.12 17.12 0 0112.152-5.033 17.136 17.136 0 0112.155 5.033c3.11 3.116 5.03 7.4 5.03 12.152h4c0-11.701-9.48-21.184-21.185-21.185-11.702.001-21.184 9.484-21.185 21.185.001 11.7 9.483 21.183 21.185 21.184 11.705-.001 21.185-9.484 21.185-21.184h-2z" fill="#000"/><path d="M978.975 158.943l6.054 5.578a1.997 1.997 0 002.756-.044l12.335-12.112c.79-.773.8-2.04.03-2.828a2.002 2.002 0 00-2.83-.026l-10.98 10.78-4.656-4.29a2 2 0 10-2.709 2.942" fill="#000"/><path d="M704.901 362.343a9.333 9.333 0 01-9.333 9.333H417.019c-5.155 0-9.334-4.179-9.334-9.333V186.729c0-5.154 4.179-9.333 9.334-9.333h278.549a9.333 9.333 0 019.333 9.333v175.614z" fill="#E8F2FC"/><path d="M704.901 362.343h-2a7.304 7.304 0 01-2.148 5.187 7.304 7.304 0 01-5.185 2.146H417.019a7.307 7.307 0 01-5.187-2.146 7.312 7.312 0 01-2.148-5.187V186.729a7.307 7.307 0 012.148-5.185 7.308 7.308 0 015.187-2.148h278.549a7.306 7.306 0 015.185 2.148 7.299 7.299 0 012.148 5.185v175.614h4V186.729c-.001-6.26-5.073-11.332-11.333-11.333H417.019c-6.26.001-11.334 5.073-11.334 11.333v175.614c0 6.259 5.074 11.332 11.334 11.333h278.549c6.26-.001 11.332-5.074 11.333-11.333h-2z" fill="#000"/><path d="M587.757 212.377c0 .874-.708 1.582-1.584 1.582h-26.03c-.88 0-1.587-.708-1.587-1.582v-14.72c0-.873.707-1.581 1.587-1.581h26.03c.876 0 1.584.708 1.584 1.581v14.72zm-34.134 0c0 .874-.71 1.582-1.584 1.582h-26.031c-.88 0-1.588-.708-1.588-1.582v-14.72c0-.873.708-1.581 1.588-1.581h26.031c.874 0 1.584.708 1.584 1.581v14.72zm-34.134 0c0 .874-.71 1.582-1.585 1.582h-26.031c-.88 0-1.586-.708-1.586-1.582v-14.72c0-.873.706-1.581 1.586-1.581h26.031c.875 0 1.585.708 1.585 1.581v14.72zm170.674 0c0 .874-.71 1.582-1.584 1.582h-24.698a1.58 1.58 0 01-1.586-1.582v-14.72a1.58 1.58 0 011.586-1.581h24.698c.874 0 1.584.708 1.584 1.581v14.72zm-35.468 0c0 .874-.71 1.582-1.586 1.582h-24.694c-.883 0-1.59-.708-1.59-1.582v-14.72c0-.873.707-1.581 1.59-1.581h24.694c.876 0 1.586.708 1.586 1.581v14.72zm-32.802 0c0 .874-.709 1.582-1.585 1.582h-26.029c-.88 0-1.588-.708-1.588-1.582v-14.72c0-.873.708-1.581 1.588-1.581h26.029c.876 0 1.585.708 1.585 1.581v14.72zm-136.541 0c0 .874-.708 1.582-1.584 1.582H457.74a1.585 1.585 0 01-1.591-1.582v-14.72c0-.873.71-1.581 1.591-1.581h26.028c.876 0 1.584.708 1.584 1.581v14.72zm-34.135 0c0 .874-.709 1.582-1.584 1.582h-26.03a1.583 1.583 0 01-1.587-1.582v-14.72c0-.873.708-1.581 1.587-1.581h26.03c.875 0 1.584.708 1.584 1.581v14.72zm157.214 28.195c0 .873-.708 1.583-1.584 1.583h-26.031c-.88 0-1.587-.71-1.587-1.583v-14.72c0-.872.707-1.58 1.587-1.58h26.031c.876 0 1.584.708 1.584 1.58v14.72zm-34.135 0c0 .873-.711 1.583-1.584 1.583h-26.031c-.88 0-1.588-.71-1.588-1.583v-14.72c0-.872.708-1.58 1.588-1.58h26.031c.873 0 1.584.708 1.584 1.58v14.72zm-34.133 0c0 .873-.711 1.583-1.586 1.583h-26.03c-.88 0-1.587-.71-1.587-1.583v-14.72c0-.872.707-1.58 1.587-1.58h26.03c.875 0 1.586.708 1.586 1.58v14.72zm135.204 0c0 .873-.708 1.583-1.584 1.583h-24.696c-.882 0-1.588-.71-1.588-1.583v-14.72c0-.872.706-1.58 1.588-1.58h24.696c.876 0 1.584.708 1.584 1.58v14.72zm-32.8 0c0 .873-.71 1.583-1.586 1.583h-26.029c-.88 0-1.589-.71-1.589-1.583v-14.72c0-.872.709-1.58 1.589-1.58h26.029c.876 0 1.586.708 1.586 1.58v14.72zm-136.542 0c0 .873-.708 1.583-1.584 1.583h-26.028c-.882 0-1.59-.71-1.59-1.583v-14.72c0-.872.708-1.58 1.59-1.58h26.028c.876 0 1.584.708 1.584 1.58v14.72zm-34.134 0c0 .873-.71 1.583-1.586 1.583h-26.029c-.879 0-1.587-.71-1.587-1.583v-14.72c0-.872.708-1.58 1.587-1.58h26.029c.876 0 1.586.708 1.586 1.58v14.72zm129.724 56.391c0 .873.876 1.582 0 1.582h-20.799c-.88 0-1.587-.709-1.587-1.582v-14.72c0-.872.707-1.582 1.587-1.582h14.097c.878 0 1.586.71 1.586 1.582l5.116 14.72zm-27.319 0c0 .873-.711 1.582-1.584 1.582h-26.031c-.88 0-1.588-.709-1.588-1.582v-14.72c0-.872.708-1.58 1.588-1.58h26.031c.873 0 1.584.708 1.584 1.58v14.72zm-34.133 0c0 .873-.711 1.582-1.586 1.582h-26.03c-.88 0-1.587-.709-1.587-1.582v-14.72c0-.872.707-1.582 1.587-1.582h26.03c.875 0 1.586.71 1.586 1.582v14.72zm48.001-28.195c0 .873-.708 1.581-1.584 1.581h-26.031c-.88 0-1.586-.708-1.586-1.581v-14.72c0-.873.706-1.581 1.586-1.581h26.031c.876 0 1.584.708 1.584 1.581v14.72zm-34.136 0c0 .873-.709 1.581-1.583 1.581h-26.03a1.581 1.581 0 01-1.588-1.581v-14.72c0-.873.706-1.581 1.588-1.581h26.03c.874 0 1.583.708 1.583 1.581v14.72zm-34.132 0c0 .873-.711 1.581-1.587 1.581h-5.221l-1.6-7.908-8.788-1.718-7.364 9.626h-3.056c-.88 0-1.587-.708-1.587-1.581v-14.72c0-.873.707-1.581 1.587-1.581h26.029c.876 0 1.587.708 1.587 1.581v14.72zm170.673 0c0 .873-.71 1.581-1.585 1.581h-8.852l-6.044-12.916-9.156 3.047-.644 9.869a1.582 1.582 0 01-1.588-1.581v-14.72c0-.873.707-1.581 1.588-1.581h24.696c.875 0 1.585.708 1.585 1.581v14.72m-73.606 1.581h-7.247c-.521 0-3.507-7.516-8.101-8.941-1.658-.515-3.935.647-5.718 1.809-1.598 1.042-2.801 2.084-2.801 1.916v-11.085c0-.873.709-1.581 1.589-1.581h18.436c.875 0 4.716 17.882 3.842 17.882m-165.339-9.29c0 .873-3.577 9.29-4.452 9.29h-6.016l-.984-10.958-9.084-1.583-7.079 12.541a1.584 1.584 0 01-1.588-1.581v-14.72c0-.873.71-1.581 1.588-1.581h26.03c.874 0 1.585.708 1.585 1.581v7.011m52.631 66.859c0 .761.628 1.389 1.398 1.389h87.866c.77 0 1.394-.628 1.394-1.389v-13.309c0-.774-.624-1.397-1.394-1.397h-87.866c-.77 0-1.398.623-1.398 1.397v13.309" fill="#3B94EC"/><path d="M710.596 155.667c-2.637 6.026-5.005 11.176-11.179 11.176H414.909c-6.174 0-8.98-6.684-11.177-11.176l-32.193-61.864c-3.44-6.304-4.755-11.723 11.18-11.179h351.038c14.451-.217 10.678 5.861 8.376 11.117l-31.537 61.926z" fill="#E8F2FC"/><path d="M710.596 155.667l-1.832-.803c-1.307 3.007-2.532 5.657-3.971 7.373-.717.864-1.462 1.496-2.305 1.926-.844.426-1.804.677-3.071.68H414.909a5.708 5.708 0 01-3.016-.831c-1.334-.789-2.541-2.199-3.589-3.892-1.052-1.688-1.936-3.613-2.776-5.333l-.023-.044-32.192-61.863-.018-.035c-.591-1.082-1.098-2.108-1.438-3.009-.342-.901-.506-1.672-.502-2.21.005-.46.088-.731.246-.99.123-.193.31-.403.663-.637.523-.35 1.435-.726 2.813-.988 1.376-.267 3.204-.426 5.526-.424.644 0 1.326.012 2.046.036l.07.001h351.069c.243-.004.479-.005.709-.005 3.69-.014 5.895.501 6.872 1.048.496.27.688.497.803.686.111.192.176.41.18.792.008.572-.212 1.471-.609 2.486-.392 1.017-.934 2.15-1.443 3.31l1.833.8-1.782-.908-31.536 61.926-.051.105 1.832.803 1.783.906 31.536-61.924.05-.106c.467-1.072 1.035-2.247 1.51-3.474.468-1.229.869-2.513.877-3.924.004-.92-.199-1.92-.732-2.82a5.596 5.596 0 00-1.64-1.742c-1.024-.712-2.281-1.182-3.825-1.496-1.547-.312-3.396-.468-5.658-.468-.252 0-.509.001-.77.005l.03 2v-2H382.719v2l.069-1.999a62.546 62.546 0 00-2.185-.038c-4.444.012-7.498.49-9.744 1.61-1.116.564-2.038 1.34-2.646 2.311-.612.968-.862 2.075-.858 3.117.004 1.254.32 2.447.761 3.624.445 1.178 1.031 2.344 1.668 3.512l1.755-.958-1.774.922 32.192 61.864 1.775-.922-1.797.878c1.085 2.202 2.368 5.123 4.32 7.627.98 1.251 2.144 2.409 3.585 3.273a9.745 9.745 0 005.069 1.398h284.508c1.819.004 3.471-.39 4.888-1.116 2.139-1.094 3.679-2.851 4.914-4.808 1.238-1.968 2.214-4.183 3.209-6.451l-1.832-.801 1.783.906-1.783-.906" fill="#000"/><path d="M396.776 91.603c22.62 53.306 16.407 38.79 28.276 66.146h263.891l28.276-66.361c-110.479 0-320.443.215-320.443.215z" fill="#3B94EC"/><path d="M479.82 362.751a686.964 686.964 0 001.565-4.123c3.638-9.686 30.47-87.519 31.036-89.248.13-.395.204-.8.227-1.209l.44 2.178h5.221c.876 0 1.587-.708 1.587-1.581v-7.376c2.983 1.664 5.003 5.117 4.057 7.988-.129.392-1.616 4.72-3.877 11.281h-7.529c-.88 0-1.587.71-1.587 1.582v14.72c0 .873.707 1.582 1.587 1.582h1.356c-1.627 4.704-3.347 9.676-5.076 14.667h-3.174c-.77 0-1.398.623-1.398 1.397v11.781c-5.308 15.274-9.968 28.59-11.338 32.238-.133.353-.258.681-.385 1.022a1440.275 1440.275 0 01-12.712 3.101zm32.264-97.366a8.34 8.34 0 00-1.381-2.108c.253-.306.512-.585.774-.838l.011.002.596 2.944" fill="#C5D0D4"/><path d="M513.903 298.545h-1.356c-.88 0-1.587-.709-1.587-1.582v-14.72c0-.872.707-1.582 1.587-1.582h7.529c-1.701 4.936-3.841 11.136-6.173 17.884m4.406-28.196h-5.221l-.44-2.178c.051-.928-.157-1.88-.564-2.786l-.596-2.944-.011-.002c1.504-1.443 3.168-2.039 4.786-2.039 1.276 0 2.521.372 3.633.992v7.376c0 .873-.711 1.581-1.587 1.581zm-14.054 56.04v-11.78c0-.774.628-1.397 1.398-1.397h3.174a13126.64 13126.64 0 01-4.572 13.177z" fill="#327FC7"/><path d="M452.775 307.732c-.339 0-.666-.228-.772-.8 8.224-23.565 17.846-50.768 17.992-51.752.317-2.161-.41-4.364-1.738-6.067 1.799-2.185 3.819-3.076 5.732-3.076 2.53 0 4.875 1.558 6.274 3.739a10.48 10.48 0 00-1.722 1.96c-3.645 5.289-21.336 47.388-24.292 54.447a9.649 9.649 0 00-.486.783l-.132.142c-.131.37-.499.624-.856.624zm20.541 9.833c-.148 0-.304-.028-.467-.089-.721-.269-.98-.701-.92-1.434 6.678-19.225 15.127-43.482 18.764-53.951v6.677c0 .873.707 1.581 1.587 1.581h2.997c-1.554 3.234-3.273 6.962-4.48 9.51-3.906 8.238-15.396 35.438-15.396 35.438s-.741 2.268-2.085 2.268zm18.64-65.065a8.437 8.437 0 00-1.172-1.685c1.719-2.031 3.695-2.846 5.595-2.846 2.986 0 5.784 2.016 7.096 4.498H492.28c-.112 0-.22.01-.324.033z" fill="#C5D0D4"/><path d="M495.277 270.349h-2.997c-.88 0-1.587-.708-1.587-1.581v-6.677c1.062-3.059 1.714-4.942 1.791-5.178.472-1.428.215-2.994-.528-4.413.104-.023.212-.033.324-.033h11.195c.754 1.426 1.017 3.006.544 4.446-.066.198-.54 1.564-1.319 3.81-1.497.497-2.96 1.592-4.224 3.481-.672 1.005-1.876 3.397-3.199 6.145z" fill="#327FC7"/><path d="M434.055 305.02c2.929-14.352 5.728-27.991 7.084-34.872l.017.201h6.029c-5.81 14.746-12.257 32.288-13.13 34.671zm6.234-44.324a7.074 7.074 0 00-.172-.216l.136-.179.036.395" fill="#C5D0D4"/><path d="M447.172 270.349h-6.016l-.017-.201c.537-2.728.848-4.395.85-4.623.02-1.757-.637-3.449-1.7-4.829l-.036-.395c1.595-2.029 3.523-2.869 5.408-2.869 2.116 0 4.18 1.057 5.662 2.673a571.199 571.199 0 00-4.138 10.244h-.013" fill="#327FC7"/><path d="M448.172 440.104h-11.748l11.623-30.78a1.642 1.642 0 00-.966-2.108l-3.933-2.237 2.756-7.339c2.047-.099 4.356-.351 6.884-.759l13.345-4.441h3.33a124.24 124.24 0 003.422-1.26c11.34-4.509 31.772-12.111 43.967-17.504h11.531c-12.194 5.393-32.623 12.995-43.966 17.504a124.32 124.32 0 01-3.424 1.26l-25.626 12.539 3.245 2.237a1.642 1.642 0 01.967 2.108l-11.407 30.78z" fill="#D8DBD7"/><path d="M534.819 369.676h-11.532c2.154-2.719 3.184-6.565 1.341-9.812a10.267 10.267 0 00-4.615-4.253c.287-.078.49-.133.578-.162 2.081-.652 3.984-.945 5.7-.945 4.768 0 8.106 2.26 9.868 5.36 1.845 3.247.814 7.093-1.34 9.812" fill="#C5D0D4"/><path d="M528.383 373.676h-11.531a135.752 135.752 0 004.435-2.045 10.831 10.831 0 002-1.955h11.532a10.841 10.841 0 01-2.002 1.955c-1.3.633-2.793 1.32-4.434 2.045" fill="#000"/><path d="M396.956 388.114l3.695-9.831s-7.815-10.733.216-32.102l8.412-22.385s.549-1.585 1.546-3.859l5.532-14.781c.06-.168.132-.325.198-.488 3.584-15.717 8.945-38.368 10.976-42.385 4.714-9.332 14.592-3.512 14.516 3.244-.011.805-3.844 19.452-7.935 39.494 1.445-3.946 18.188-49.493 21.995-55.017 5.932-8.609 14.932-1.507 13.945 5.177-.145.983-9.768 28.187-17.989 51.752.216 1.178 1.372.896 1.625.176l.132-.143c.149-.269.313-.529.487-.782 2.956-7.059 20.649-49.157 24.292-54.447 5.932-8.608 15.841-.581 13.945 5.176-.344 1.047-11.929 34.29-20.557 59.131-.06.732.198 1.163.92 1.433 1.637.616 2.554-2.178 2.554-2.178s11.49-27.2 15.394-35.439c2.233-4.715 6.216-13.467 7.678-15.655 5.814-8.69 15.842-.582 13.946 5.176-.567 1.73-27.398 79.561-31.036 89.248a1086.17 1086.17 0 01-1.563 4.123c10.831-2.576 28.159-6.964 29.235-7.301 7.861-2.463 13.174.198 15.57 4.414 2.354 4.139.028 9.259-3.341 11.767-10.964 5.336-35.532 14.433-48.401 19.549-11.651 4.514-20.487 6.148-26.982 6.46l-2.956 7.868-46.049-17.395" fill="#fff"/><path d="M396.956 388.114l1.872.705 3.695-9.832a2 2 0 00-.255-1.882l-.709.518.717-.507-.008-.011-.709.518.717-.507c-.021-.037-3.032-4.291-3.036-12.856.001-4.548.851-10.328 3.499-17.375l6.025-16.036 1.755-4.668.632-1.681.017-.049.021-.058c.106-.3.62-1.721 1.468-3.653l.042-.103 5.53-14.781.011-.028c.019-.057.079-.188.169-.412l.095-.303c1.791-7.85 4.024-17.433 6.06-25.537 1.019-4.052 1.987-7.735 2.821-10.633.416-1.448.8-2.7 1.134-3.692.33-.987.626-1.735.797-2.066.76-1.501 1.608-2.429 2.423-2.985.82-.553 1.616-.769 2.444-.773 1.369-.01 2.88.681 4.018 1.841 1.144 1.153 1.852 2.699 1.846 4.181v.078h2l-2-.026 1.378.018-1.373-.131-.005.113 1.378.018-1.373-.131.227.021-.226-.025-.001.004.227.021-.226-.025a8.938 8.938 0 01-.06.381c-.274 1.618-1.305 6.786-2.726 13.787-1.423 7.009-3.242 15.893-5.115 25.069a2 2 0 003.837 1.088c.72-1.966 5.266-14.334 10.1-26.886 2.418-6.275 4.908-12.598 7.024-17.678 1.058-2.538 2.022-4.768 2.83-6.512a54.3 54.3 0 011.08-2.22c.308-.596.574-1.049.73-1.273.844-1.224 1.699-1.995 2.492-2.46.796-.465 1.536-.643 2.264-.645 1.35-.008 2.767.685 3.856 1.865 1.091 1.172 1.768 2.768 1.76 4.255 0 .249-.017.494-.052.737v-.004l1.268.188-1.245-.305-.023.117 1.268.188-1.245-.305c.001.001-.059.209-.148.486-.341 1.072-1.159 3.471-2.297 6.762-3.423 9.885-9.786 27.941-15.478 44.256a1.99 1.99 0 00-.078 1.018c.106.595.378 1.228.897 1.714a2.691 2.691 0 001.84.726 2.886 2.886 0 001.679-.549c.46-.332.845-.801 1.062-1.409l-1.885-.666 1.46 1.366.133-.142c.114-.122.21-.254.291-.401.111-.201.239-.406.381-.611a1.98 1.98 0 00.199-.364 2426.602 2426.602 0 0111.877-27.862c2.62-6.026 5.262-11.995 7.468-16.772a223.463 223.463 0 012.92-6.12c.412-.82.78-1.527 1.094-2.096.31-.567.573-1.002.734-1.235.792-1.147 1.604-1.86 2.376-2.297a4.561 4.561 0 012.278-.611c1.426-.009 2.956.697 4.094 1.805a6.52 6.52 0 011.332 1.82c.308.638.456 1.266.455 1.816 0 .316-.045.607-.136.886l-.617 1.79c-2.566 7.399-12.38 35.57-19.93 57.307-.054.157-.09.325-.104.492a4.802 4.802 0 00-.014.358c0 .3.032.627.129.966.137.509.452 1.031.849 1.395.396.369.831.594 1.246.75.37.14.774.218 1.169.216.917.002 1.672-.398 2.163-.808.746-.629 1.125-1.306 1.404-1.837.269-.533.4-.933.422-.997l-1.9-.624 1.842.778a2821.695 2821.695 0 018.801-20.589c2.587-5.977 5.119-11.736 6.557-14.772 1.124-2.372 2.676-5.733 4.127-8.768a176.722 176.722 0 012.024-4.127c.595-1.168 1.116-2.108 1.384-2.504.775-1.157 1.573-1.873 2.333-2.31.763-.435 1.5-.61 2.255-.612 1.421-.011 2.967.704 4.119 1.826a6.641 6.641 0 011.35 1.84c.311.643.462 1.275.46 1.824 0 .312-.045.599-.134.872-.026.076-.167.495-.394 1.156-1.713 5-8.52 24.748-15.322 44.376-3.402 9.813-6.802 19.599-9.564 27.496-2.762 7.891-4.894 13.917-5.728 16.141l.001-.003c-.556 1.469-1.071 2.834-1.56 4.114a2.003 2.003 0 002.331 2.66c5.429-1.29 12.473-3.033 18.3-4.495 2.913-.731 5.52-1.393 7.47-1.893.975-.25 1.786-.46 2.39-.619a62.055 62.055 0 001.21-.33c1.912-.6 3.614-.854 5.103-.854 2.069.002 3.729.482 5.063 1.249a8.252 8.252 0 013.066 3.098c.486.856.694 1.739.696 2.675.002 1.181-.36 2.444-.996 3.6-.632 1.155-1.534 2.186-2.496 2.9l1.195 1.604-.876-1.799c-5.367 2.614-14.24 6.223-23.341 9.795-9.108 3.576-18.463 7.127-24.923 9.695l.016-.007c-11.485 4.449-20.109 6.027-26.356 6.328a2.002 2.002 0 00-1.776 1.293l-2.251 5.994-44.174-16.687-.707 1.87 1.872.705-1.872-.705-.707 1.873 46.05 17.394a1.995 1.995 0 002.578-1.168l2.956-7.869-1.872-.703.096 1.998c6.743-.325 15.792-2.015 27.608-6.592l.016-.007c6.41-2.548 15.774-6.103 24.908-9.689 9.14-3.59 18.032-7.198 23.63-9.92l.32-.195a13.146 13.146 0 003.613-4.183c.908-1.657 1.487-3.545 1.488-5.525a9.333 9.333 0 00-1.217-4.652 12.265 12.265 0 00-4.546-4.586c-1.969-1.138-4.362-1.788-7.061-1.784-1.945 0-4.051.331-6.3 1.037-.005.002-.137.04-.313.088-1.372.373-6.06 1.571-11.639 2.968a1629.266 1629.266 0 01-17.147 4.208l.463 1.945 1.868.715c.495-1.294 1.011-2.663 1.565-4.131l.002-.003c.928-2.47 3.281-9.138 6.32-17.833a14731.163 14731.163 0 0015.624-45.021 19444.932 19444.932 0 008.3-24.075c.477-1.388.754-2.199.82-2.4a6.79 6.79 0 00.334-2.119c-.001-1.256-.326-2.464-.858-3.565-.803-1.651-2.066-3.088-3.62-4.157-1.555-1.064-3.43-1.766-5.451-1.768a8.473 8.473 0 00-4.245 1.142c-1.366.783-2.61 1.972-3.668 3.556-.463.698-.988 1.674-1.622 2.908-1.876 3.675-4.534 9.483-6.202 13.003-1.983 4.185-5.826 13.035-9.191 20.876a3065.463 3065.463 0 00-6.237 14.64l-.059.155.453.149-.45-.157-.003.008.453.149-.45-.157c-.007.033-.18.477-.376.764-.094.145-.19.237-.191.236l.235.305-.139-.356-.096.051.235.305-.139-.356.28.716v-.767l-.28.051.28.716v-.767.671l.237-.631-.237-.04v.671l.237-.631-.037-.016-.211.422.306-.354-.095-.068-.211.422.306-.354-.618.716.875-.353a.993.993 0 00-.257-.363l-.618.716.875-.353-.743.3.791-.135-.048-.165-.743.3.791-.135-.313.053h.318l-.005-.053-.313.053h.318l.003-.031-1.993-.163 1.889.656c4.313-12.42 9.367-26.94 13.385-38.487 2.008-5.773 3.759-10.804 5.028-14.456.635-1.826 1.15-3.308 1.516-4.366.37-1.067.582-1.678.639-1.854a6.833 6.833 0 00.336-2.132c-.001-1.25-.323-2.453-.849-3.55-.796-1.644-2.051-3.075-3.599-4.138-1.547-1.057-3.417-1.75-5.433-1.753a8.56 8.56 0 00-4.244 1.128c-1.37.772-2.626 1.945-3.703 3.511-.293.428-.596.941-.947 1.576-1.297 2.361-3.208 6.394-5.434 11.296-6.663 14.678-16.027 36.964-18.108 41.937l1.844.772-1.646-1.136c-.206.299-.406.616-.593.953l1.752.966-1.46-1.367-.133.143a1.993 1.993 0 00-.426.7l.992.35-.616-.858a1.054 1.054 0 00-.376.508l.992.35-.616-.858.655.91v-1.112a1.105 1.105 0 00-.655.202l.655.91v-1.112 1.311l.896-.955a1.34 1.34 0 00-.896-.356v1.311l.896-.955-.611.651.912-.167c-.001-.022-.057-.256-.301-.484l-.611.651.912-.167-1.966.36 1.888.659c4.109-11.78 8.57-24.472 12.022-34.343 1.727-4.937 3.2-9.168 4.254-12.23.526-1.532.948-2.772 1.245-3.668a84.9 84.9 0 00.355-1.091c.042-.141.078-.26.109-.369.032-.123.056-.182.095-.415v-.004c.065-.443.094-.883.094-1.317-.008-2.651-1.114-5.115-2.822-6.97-1.707-1.846-4.099-3.144-6.794-3.15-1.428-.003-2.912.384-4.288 1.194-1.38.81-2.648 2.024-3.761 3.64-.32.466-.631 1.016-.987 1.696-1.312 2.527-3.169 6.844-5.29 12.051-6.351 15.591-14.928 38.931-15.95 41.717l1.879.688 1.96.4c2.045-10.02 4.027-19.693 5.497-26.965.736-3.636 1.346-6.671 1.772-8.853.214-1.092.38-1.971.498-2.612.058-.322.104-.583.137-.792l.043-.288c.01-.099.022-.163.028-.358v-.104c-.007-2.721-1.219-5.186-3-6.993-1.786-1.801-4.208-3.02-6.864-3.029a8.274 8.274 0 00-4.698 1.469c-1.468 1.001-2.738 2.503-3.74 4.485-.336.674-.652 1.512-1.017 2.594-1.261 3.753-2.991 10.329-4.819 17.745-1.825 7.408-3.736 15.62-5.305 22.504l1.951.444-1.855-.747c-.039.099-.127.284-.227.562l1.884.673-1.873-.701-5.532 14.781 1.873.701-1.832-.804c-1.025 2.339-1.592 3.971-1.604 4.008l1.89.655-1.872-.704-8.412 22.387c-2.804 7.457-3.755 13.732-3.755 18.781-.003 9.839 3.609 14.956 3.795 15.2l1.616-1.177-1.872-.703-3.695 9.832a2 2 0 001.165 2.575l.707-1.873" fill="#000"/><path d="M438.376 440.809l11.6-30.778.004-.011a3.643 3.643 0 00-2.144-4.677l-53.365-19.87a3.657 3.657 0 00-1.264-.228 3.67 3.67 0 00-2.054.634 3.636 3.636 0 00-1.364 1.739l.002-.006-19.408 51.789a2 2 0 103.745 1.405l19.409-51.79.002-.005-.343-.127.205.303.138-.176-.343-.127.205.303-.194-.287v.345l.194-.058-.194-.287v.345-.373l-.131.351.131.022v-.373l-.131.351 53.364 19.867.125-.335h-.358a.354.354 0 00.233.335l.125-.335h-.358.358l-.337-.126-.021.126h.358l-.337-.126.004-.009-11.599 30.779a2 2 0 003.744 1.41" fill="#000"/><path d="M668.672 440.104h-11.751l-11.446-30.78a1.634 1.634 0 01.965-2.108l3.243-2.237-25.626-12.539a124.2 124.2 0 01-3.421-1.26c-11.344-4.509-31.775-12.111-43.969-17.504H588.2c12.195 5.393 32.624 12.995 43.967 17.504a124.2 124.2 0 003.421 1.26h.833l1.878.924c8.665 2.856 15.55 4.02 20.846 4.276l2.759 7.339-3.932 2.237a1.64 1.64 0 00-.967 2.108l11.667 30.78z" fill="#D8DBD7"/><path d="M581.764 369.676h-11.533c-2.155-2.719-3.184-6.565-1.34-9.812 1.761-3.1 5.098-5.36 9.868-5.36 1.717 0 3.621.293 5.702.945.086.029.29.084.575.162a10.283 10.283 0 00-4.615 4.253c-1.842 3.247-.813 7.093 1.343 9.812" fill="#C5D0D4"/><path d="M588.2 373.676h-11.533a133.83 133.83 0 01-4.435-2.045 10.836 10.836 0 01-2.001-1.955h11.533a10.805 10.805 0 002.001 1.955c1.302.633 2.794 1.32 4.435 2.045" fill="#000"/><path d="M625.229 362.751c-3.77-.897-8.325-2.013-12.708-3.101-.13-.341-.253-.669-.385-1.022-2.192-5.829-12.78-36.333-20.989-60.083h10.468c.876 0 0-.709 0-1.582l-5.116-14.72c0-.872-.708-1.582-1.586-1.582h-9.94a5330.465 5330.465 0 01-3.546-10.312h5.153c.876 0 1.584-.708 1.584-1.581v-8.339c.207-.018.415-.029.623-.029 1.448 0 2.934.479 4.309 1.615v3.094c-.691 1.383-.92 2.894-.465 4.271.565 1.729 27.396 79.562 31.036 89.248a632.084 632.084 0 001.562 4.123" fill="#C5D0D4"/><path d="M601.615 298.545h-10.468c-2.332-6.748-4.471-12.948-6.174-17.884h9.94c.878 0 1.586.71 1.586 1.582l5.116 14.72c0 .873.876 1.582 0 1.582m-15.035-28.196h-5.153a163.29 163.29 0 01-.331-.969c-1.24-3.765 2.623-8.533 7.068-8.951v8.339c0 .873-.708 1.581-1.584 1.581m6.516-5.24v-3.094c.429.354.848.773 1.251 1.262a8.44 8.44 0 00-1.251 1.832z" fill="#327FC7"/><path d="M652.276 307.732c-.357 0-.725-.254-.857-.624l-.13-.142c-.152-.27-.316-.53-.489-.783-2.956-7.059-20.647-49.158-24.292-54.447a10.512 10.512 0 00-1.721-1.96c1.398-2.181 3.744-3.739 6.273-3.739 1.915 0 3.935.891 5.735 3.076-1.331 1.703-2.058 3.906-1.738 6.067.143.984 9.768 28.187 17.99 51.752-.107.572-.434.8-.771.8m-20.54 9.833c-1.344 0-2.088-2.268-2.088-2.268s-11.489-27.2-15.393-35.438c-1.207-2.548-2.926-6.276-4.482-9.51h7.19c.077 0 .118-.142.126-.401 4.24 12.187 10.702 30.744 16.034 46.094.057.733-.199 1.165-.92 1.434a1.328 1.328 0 01-.467.089zm-18.625-65.098h-11.535c1.312-2.482 4.109-4.498 7.096-4.498 1.9 0 3.875.815 5.593 2.846a8.514 8.514 0 00-1.154 1.652z" fill="#C5D0D4"/><path d="M616.963 270.349h-7.19c-1.322-2.748-2.526-5.14-3.2-6.145-1.264-1.889-2.726-2.984-4.224-3.481-.778-2.246-1.253-3.612-1.318-3.81-.474-1.44-.21-3.02.545-4.446h11.535c-.756 1.426-1.022 3.006-.546 4.446.131.4 1.903 5.499 4.524 13.035-.008.259-.049.401-.126.401" fill="#327FC7"/><path d="M670.997 305.02c-1.093-2.977-10.888-29.632-17.27-44.915 1.482-1.616 3.546-2.673 5.662-2.673a6.22 6.22 0 013.311.953v10.383c0 .756.531 1.389 1.245 1.545 1.368 6.934 4.146 20.468 7.052 34.707" fill="#C5D0D4"/><path d="M663.945 270.313a1.582 1.582 0 01-1.245-1.545v-10.383c.789.488 1.544 1.176 2.232 2.095-1.161 1.417-1.891 3.195-1.869 5.045.002.234.325 1.963.882 4.788" fill="#327FC7"/><path d="M708.093 388.114l-3.694-9.831s7.814-10.733-.214-32.102l-8.414-22.385s-.55-1.585-1.547-3.859l-5.529-14.781c-.062-.168-.132-.325-.2-.488-3.583-15.717-8.946-38.368-10.974-42.385-4.714-9.332-14.594-3.512-14.518 3.244.01.805 3.846 19.452 7.937 39.494-1.448-3.946-18.188-49.493-21.997-55.017-5.932-8.609-14.932-1.507-13.946 5.177.146.983 9.771 28.187 17.992 51.752-.218 1.178-1.374.896-1.628.176l-.129-.143a10.138 10.138 0 00-.489-.782c-2.956-7.059-20.647-49.157-24.292-54.447-5.932-8.608-15.842-.581-13.943 5.176.341 1.047 11.929 34.29 20.555 59.131.06.732-.199 1.163-.918 1.433-1.64.616-2.554-2.178-2.554-2.178s-11.49-27.2-15.394-35.439c-2.233-4.715-6.216-13.467-7.681-15.655-5.813-8.69-15.841-.582-13.943 5.176.566 1.73 27.396 79.561 31.036 89.248.552 1.47 1.068 2.836 1.563 4.123-10.831-2.576-28.159-6.964-29.237-7.301-7.862-2.463-13.175.198-15.571 4.414-2.351 4.139-.028 9.259 3.344 11.767 10.961 5.336 35.532 14.433 48.401 19.549 11.648 4.514 20.484 6.148 26.979 6.46l2.956 7.868 46.049-17.395" fill="#fff"/><path d="M708.093 388.114l1.872-.702-3.694-9.832-1.872.703 1.616 1.177c.185-.246 3.797-5.363 3.794-15.203 0-5.048-.95-11.322-3.752-18.778-2.428-6.458-4.53-12.055-6.028-16.036l-1.754-4.668-.632-1.683-1.872.704 1.889-.655c-.012-.037-.579-1.669-1.604-4.008l-1.832.804 1.873-.701-5.529-14.781c-.091-.242-.173-.426-.229-.56l-1.844.773 1.949-.444c-1.793-7.867-4.031-17.468-6.08-25.623-1.024-4.078-2-7.793-2.855-10.764a93.43 93.43 0 00-1.185-3.861c-.367-1.083-.681-1.921-1.019-2.595-1-1.982-2.27-3.484-3.74-4.485a8.272 8.272 0 00-4.698-1.469c-2.656.009-5.079 1.228-6.866 3.029-1.781 1.807-2.993 4.272-3 6.993l.004.178 1.998-.1-2 .026c.005.195.017.259.028.358.044.332.129.806.264 1.534.936 5.016 4.217 20.982 7.685 37.976l1.96-.4 1.877-.688c-.725-1.978-5.274-14.36-10.124-26.948-2.425-6.294-4.924-12.641-7.064-17.778-1.07-2.57-2.049-4.835-2.892-6.655a58.654 58.654 0 00-1.161-2.387c-.356-.68-.668-1.23-.987-1.696-1.113-1.616-2.381-2.83-3.761-3.64-1.376-.81-2.86-1.197-4.288-1.194-2.696.006-5.088 1.304-6.795 3.15-1.708 1.855-2.816 4.319-2.824 6.97 0 .436.031.88.099 1.326l-.001-.005c.038.233.062.292.094.415.115.405.335 1.077.676 2.097 2.371 7.056 10.343 29.628 17.312 49.604l1.888-.659-1.966-.365.909.168-.607-.649c-.242.226-.3.458-.302.481l.909.168-.607-.649.892.954v-1.308a1.332 1.332 0 00-.892.354l.892.954v-1.308 1.111l.654-.909a1.109 1.109 0 00-.654-.202v1.111l.654-.909-.622.864 1.002-.348a1.063 1.063 0 00-.38-.516l-.622.864 1.002-.348a2.044 2.044 0 00-.415-.694l-.131-.142-1.473 1.352 1.744-.978a11.598 11.598 0 00-.588-.941l-1.645 1.136 1.844-.772a2405.987 2405.987 0 00-11.898-27.912c-2.628-6.043-5.277-12.031-7.505-16.855a226.58 226.58 0 00-2.976-6.236 69.02 69.02 0 00-1.164-2.23 19.382 19.382 0 00-.947-1.576c-1.078-1.566-2.334-2.739-3.704-3.511a8.557 8.557 0 00-4.244-1.128c-2.692.009-5.104 1.221-6.876 2.932a10.476 10.476 0 00-2.154 2.957c-.527 1.096-.85 2.299-.85 3.55-.001.71.106 1.434.34 2.14l-.002-.01c.032.102.094.282.202.595 1.59 4.617 12.278 35.283 20.364 58.572l1.89-.656-1.995.153.003.041h.476l-.454-.129-.022.129h.476l-.454-.129.904.258-.642-.684a.978.978 0 00-.262.426l.904.258-.642-.684.424.45-.314-.537-.11.087.424.45-.314-.537.096.164-.088-.168-.008.004.096.164-.088-.168-.034.015.005-.003.235.624v-.663l-.235.039.235.624v-.663.756l.29-.7-.29-.056v.756l.29-.7-.138.335.224-.289-.086-.046-.138.335.224-.289-.139-.16a3.395 3.395 0 01-.319-.57l-.089-.217-.017-.048-.003-.005-1.052.356 1.056-.346-.004-.01-1.052.356 1.056-.346-.059-.157c-.001-.001-2.874-6.804-6.237-14.64-3.365-7.841-7.208-16.691-9.191-20.876-1.11-2.343-2.666-5.715-4.132-8.781a179.387 179.387 0 00-2.072-4.222c-.634-1.236-1.16-2.21-1.624-2.909-1.057-1.583-2.301-2.772-3.666-3.555a8.481 8.481 0 00-4.246-1.142c-2.7.01-5.12 1.234-6.901 2.953a10.558 10.558 0 00-2.169 2.971c-.531 1.101-.858 2.309-.859 3.565a6.7 6.7 0 00.339 2.125l-.003-.006c.047.142.18.533.411 1.206 1.714 5.012 8.52 24.756 15.324 44.39 3.402 9.815 6.804 19.603 9.57 27.506 2.767 7.909 4.89 13.911 5.76 16.228.552 1.469 1.07 2.842 1.568 4.136l1.867-.717.463-1.945a1712.436 1712.436 0 01-18.252-4.484c-2.907-.731-5.511-1.391-7.451-1.888a443.9 443.9 0 01-3.085-.804c-.178-.048-.308-.086-.315-.088-2.249-.706-4.353-1.037-6.299-1.037-2.7-.004-5.094.646-7.062 1.784a12.253 12.253 0 00-4.546 4.587 9.344 9.344 0 00-1.216 4.649c.002 1.981.58 3.87 1.488 5.527a13.138 13.138 0 003.618 4.184l.318.194c5.596 2.722 14.487 6.33 23.628 9.92 9.135 3.586 18.499 7.141 24.91 9.689l.016.007c11.813 4.577 20.862 6.267 27.605 6.592l.096-1.998-1.872.703 2.956 7.869c.188.5.56.899 1.048 1.119.487.22 1.031.237 1.531.049l46.049-17.394a1.998 1.998 0 001.165-2.575l-1.872.702-.706-1.87-44.176 16.687-2.251-5.994a2 2 0 00-1.776-1.293c-6.245-.301-14.869-1.879-26.352-6.328l.016.007c-6.46-2.568-15.816-6.119-24.924-9.695-9.101-3.572-17.976-7.181-23.34-9.795l-.876 1.799 1.193-1.606c-.962-.713-1.865-1.745-2.497-2.9-.636-1.154-.997-2.418-.996-3.6a5.339 5.339 0 01.695-2.673 8.252 8.252 0 013.066-3.098c1.334-.767 2.994-1.247 5.064-1.249 1.49 0 3.19.254 5.103.854.129.04.26.076.461.13 1.458.397 6.119 1.587 11.718 2.99 5.594 1.4 12.104 3.007 17.194 4.217a2.002 2.002 0 002.33-2.664 552.597 552.597 0 01-1.558-4.108c-.892-2.372-3.257-9.066-6.289-17.744a14699.653 14699.653 0 01-15.62-45.009c-2.496-7.223-4.72-13.671-6.347-18.393l-1.95-5.674a646.258 646.258 0 01-.802-2.345l-.001-.008a2.699 2.699 0 01-.136-.868c-.001-.549.149-1.181.46-1.824.461-.963 1.288-1.924 2.279-2.599.993-.68 2.12-1.069 3.19-1.066a4.448 4.448 0 012.254.612c.761.437 1.56 1.153 2.334 2.31.27.398.791 1.336 1.386 2.504 1.809 3.538 4.468 9.343 6.152 12.895 1.92 4.053 5.774 12.924 9.129 20.741a3003.472 3003.472 0 016.229 14.62l1.842-.778-1.9.621c.032.088.245.765.742 1.57.254.403.579.85 1.082 1.267.49.41 1.246.81 2.164.808a3.34 3.34 0 001.168-.214l.005-.003c.545-.204 1.155-.552 1.608-1.161.223-.299.387-.646.481-.983.096-.339.128-.666.128-.966l-.013-.349a2.04 2.04 0 00-.104-.501c-4.313-12.421-9.367-26.943-13.384-38.489-2.009-5.774-3.76-10.803-5.028-14.455a3746.476 3746.476 0 01-1.949-5.619c-.104-.3-.172-.502-.182-.532l-.004-.009a2.847 2.847 0 01-.137-.881c0-.551.148-1.178.455-1.815.456-.953 1.27-1.903 2.252-2.569.981-.672 2.101-1.058 3.174-1.055a4.565 4.565 0 012.279.611c.772.437 1.584 1.15 2.376 2.297.161.235.424.669.736 1.236 1.181 2.143 3.093 6.165 5.296 11.02 6.624 14.588 15.987 36.875 18.061 41.829.056.133.116.244.199.364.143.205.273.414.391.623.07.127.173.268.27.375l.131.141 1.473-1.351-1.888.658a2.936 2.936 0 001.064 1.417 2.886 2.886 0 001.68.549 2.695 2.695 0 001.839-.724c.517-.484.792-1.116.9-1.71a1.98 1.98 0 00-.079-1.024c-4.112-11.787-8.573-24.479-12.024-34.347-1.726-4.933-3.198-9.16-4.248-12.211a406.387 406.387 0 01-1.232-3.626 66.906 66.906 0 01-.33-1.019l-.079-.263-.011-.038-1.245.305 1.268-.188-.023-.117-1.245.305 1.268-.188-.001-.005a4.855 4.855 0 01-.054-.728c-.008-1.487.671-3.083 1.76-4.255 1.091-1.18 2.508-1.873 3.859-1.865.727.002 1.467.18 2.264.645.793.465 1.648 1.236 2.492 2.46.157.225.423.677.732 1.273 1.179 2.258 3.04 6.562 5.136 11.712 6.305 15.479 14.884 38.82 15.899 41.586a2 2 0 003.837-1.09c-2.047-10.022-4.028-19.694-5.499-26.958-.736-3.632-1.344-6.662-1.766-8.828-.212-1.083-.378-1.95-.488-2.56a26.965 26.965 0 01-.123-.708l-.025-.17-.003-.013-1.145.132 1.152-.015-.007-.117-1.145.132 1.152-.015-.003-.074-.755.037.755-.013v-.024l-.755.037.755-.013v-.002c-.007-1.481.701-3.028 1.847-4.181 1.14-1.159 2.65-1.851 4.02-1.841.829.004 1.626.22 2.445.774.815.556 1.664 1.483 2.424 2.984.169.331.467 1.079.796 2.066 1.175 3.489 2.912 10.064 4.724 17.426 1.816 7.372 3.723 15.567 5.288 22.436l.107.33c.08.188.137.32.17.41l5.53 14.784.041.103a65.458 65.458 0 011.399 3.457l.069.196.021.058.018.049 8.413 22.385c2.647 7.046 3.496 12.826 3.497 17.372-.001 4.427-.805 7.692-1.585 9.831a17.29 17.29 0 01-1.048 2.359c-.137.25-.248.432-.317.541l-.074.112-.012.016.711.502-.703-.513-.008.011.711.502-.703-.513a1.994 1.994 0 00-.254 1.882l3.694 9.832 1.872-.705-.706-1.87.706 1.87" fill="#000"/><path d="M670.541 439.392l-11.726-30.779.004.012-.351.131h.373l-.022-.131-.351.131h.373-.356l.126.334a.352.352 0 00.23-.334h-.356l.126.334 53.365-19.867-.132-.355v.377l.132-.022-.132-.355v.377-.349l-.328.124c.06.141.179.225.328.225v-.349l-.328.124-.001-.006 19.366 51.79a2 2 0 103.747-1.402l-19.367-51.789-.001-.004a3.654 3.654 0 00-3.416-2.364c-.423 0-.853.076-1.264.228l-53.367 19.87a3.644 3.644 0 00-2.372 3.413c0 .425.076.857.23 1.268l.005.013 11.727 30.779a2 2 0 003.738-1.424m139.747-49.493a264.995 264.995 0 0115.217 50.581 2 2 0 103.927-.766 269.156 269.156 0 00-15.447-51.343 2 2 0 00-3.697 1.528m-106.444-125.26a268.325 268.325 0 0143.065 33.186 2 2 0 002.75-2.905 272.396 272.396 0 00-43.707-33.68 1.999 1.999 0 10-2.107 3.399m-365.754 83.36a268.658 268.658 0 0170.75-74.176 1.999 1.999 0 10-2.313-3.262 272.638 272.638 0 00-71.805 75.281 2 2 0 103.368 2.157m-37.076 92.488a265.314 265.314 0 0113.937-47.438 1.999 1.999 0 00-1.119-2.597 1.998 1.998 0 00-2.597 1.117 269.274 269.274 0 00-14.147 48.152 1.998 1.998 0 001.58 2.345 1.999 1.999 0 002.346-1.579" fill="#000"/><path d="M376.239 425.689l-83.331-47.085 23.116-40.907 81.331 45.936a2.001 2.001 0 001.968-3.484l-83.072-46.917a2 2 0 00-2.726.757l-25.082 44.388a2.016 2.016 0 00-.187 1.52c.141.507.485.947.944 1.205l85.071 48.07a2 2 0 001.968-3.483" fill="#000"/><path d="M347.064 403.566l31.949 17.557a2 2 0 001.927-3.505l-31.949-17.558a2 2 0 10-1.927 3.506zm44.592-16.416l-26.769-15.137a2 2 0 00-1.97 3.483l26.771 15.136a2 2 0 101.968-3.482zm-44.669-25.251l-26.219-14.816a1.998 1.998 0 00-2.725.757l-15.862 28.066a2.017 2.017 0 00-.185 1.519c.141.508.484.947.943 1.206l26.23 14.824a2.002 2.002 0 002.726-.758 1.999 1.999 0 00-.758-2.725l-24.489-13.84 13.893-24.584 24.478 13.833a2 2 0 001.968-3.482" fill="#000"/><path d="M363.668 392.132l-1.741-.984c-3.147 5.571-8.944 8.695-14.922 8.697-2.853 0-5.737-.712-8.402-2.217-5.571-3.147-8.694-8.941-8.696-14.917a17.024 17.024 0 012.218-8.403c3.148-5.573 8.947-8.7 14.924-8.703a17 17 0 018.396 2.216c5.572 3.147 8.696 8.946 8.7 14.923a17.046 17.046 0 01-2.218 8.404l1.741.984 1.741.984a21.03 21.03 0 002.735-10.372c.004-7.363-3.861-14.523-10.731-18.405a21.015 21.015 0 00-10.364-2.734c-7.364-.003-14.524 3.866-18.406 10.735a21.034 21.034 0 00-2.736 10.371c-.003 7.36 3.861 14.518 10.728 18.4a21.015 21.015 0 0010.37 2.734c7.363.003 14.523-3.862 18.404-10.729l-1.741-.984" fill="#000"/><path d="M336.313 384.014a7.057 7.057 0 00-.922 3.481 6.9 6.9 0 00.99 3.562c.663 1.108 1.659 2.075 2.927 2.788l2.113 1.195c1.231.697 2.544 1.032 3.799 1.031 2.153-.004 4.065-.943 5.431-2.319 1.362-1.38 2.252-3.239 2.258-5.277a6.63 6.63 0 00-1.046-3.574c-.711-1.12-1.776-2.087-3.144-2.833l-.96 1.756 1.145-1.641-1.999-1.394-.177-.11c-.704-.392-1.112-.827-1.376-1.275a2.889 2.889 0 01-.385-1.471c-.007-.89.388-1.897 1.034-2.612.654-.722 1.46-1.128 2.346-1.129.514.003 1.094.131 1.786.515l-.008-.005 2.114 1.195c.81.459 1.317.972 1.629 1.47.311.501.44.993.443 1.498a3.089 3.089 0 01-.415 1.507 2 2 0 103.484 1.965 7.034 7.034 0 00.929-3.472 6.782 6.782 0 00-1.05-3.618c-.7-1.122-1.738-2.091-3.052-2.833l-2.114-1.194-.008-.004c-1.22-.685-2.506-1.026-3.738-1.024-2.174 0-4.056 1.032-5.328 2.464-1.279 1.439-2.044 3.303-2.052 5.277a6.875 6.875 0 00.929 3.486c.639 1.101 1.628 2.061 2.896 2.76l.968-1.75-1.144 1.64 1.999 1.395.185.115c.875.48 1.384.992 1.688 1.468.3.479.419.938.421 1.428.008.817-.394 1.754-1.098 2.46-.704.708-1.635 1.138-2.591 1.136-.565-.003-1.164-.139-1.831-.514l-2.113-1.193c-.72-.409-1.173-.881-1.465-1.364a2.905 2.905 0 01-.422-1.505 3.1 3.1 0 01.407-1.514 2 2 0 10-3.483-1.967" fill="#000"/><path d="M376.956 401.23a5.192 5.192 0 01-7.064 1.966 5.187 5.187 0 01-1.963-7.066 5.183 5.183 0 119.027 5.1zm-59.348-27.846a5.19 5.19 0 01-1.96-7.068 5.18 5.18 0 017.059-1.956c5.961 3.37.872 12.399-5.099 9.024" fill="#3B94EC"/><path d="M352.267 369.571l-14.28 25.271a2 2 0 003.482 1.967l14.28-25.272a2 2 0 10-3.482-1.966z" fill="#000"/><path d="M914.517 179.371c1.184 0 2.355.057 3.519.141l.009-.009V50.957H784.307v178.904h82.138c-.037-.782-.06-1.57-.06-2.362 0-26.582 21.547-48.128 48.132-48.128z" fill="#D8DBD7"/><path d="M953.016 257.036l29.744 29.488-.007-.007a7.103 7.103 0 012.103 5.031c-.003 1.747-.648 3.444-1.948 4.745l-.005.006-.175.177.005-.007c-1.301 1.299-2.997 1.943-4.745 1.947a7.1 7.1 0 01-5.031-2.105l-.008-.008-29.744-29.486a2.002 2.002 0 00-2.829.012 2.002 2.002 0 00.013 2.83l29.744 29.485-.008-.008a11.103 11.103 0 007.863 3.28 10.672 10.672 0 007.572-3.116l.007-.007.176-.177-.006.005a10.666 10.666 0 003.119-7.573 11.113 11.113 0 00-3.273-7.859l-.007-.006-29.744-29.488a2 2 0 00-2.816 2.841z" fill="#000"/><path d="M962.648 227.499h-2c-.001 12.746-5.161 24.266-13.512 32.62-8.355 8.35-19.875 13.508-32.619 13.509-12.746-.001-24.266-5.159-32.621-13.509-8.351-8.354-13.509-19.874-13.511-32.62.002-12.746 5.16-24.264 13.511-32.619 8.355-8.349 19.875-13.508 32.621-13.509 12.743.001 24.264 5.16 32.619 13.51 8.351 8.354 13.511 19.872 13.512 32.618h4c-.001-27.687-22.447-50.127-50.131-50.128-27.69.001-50.13 22.441-50.132 50.128.002 27.69 22.442 50.128 50.132 50.129 27.684-.001 50.13-22.439 50.131-50.129h-2" fill="#000"/><path d="M949.659 227.5c0 19.409-15.735 35.144-35.142 35.144-19.405 0-35.142-15.735-35.142-35.144 0-19.403 15.737-35.139 35.142-35.139 19.407 0 35.142 15.736 35.142 35.139zM836.057 110.855h-30.418v-16.41h30.418v16.41zm30.328 16.408h-30.417v-16.408h30.417v16.408z" fill="#3B94EC"/><path d="M896.923 82.137v-2h-89.284V64.855h87.285l-.001 17.282h2v-2 2h2V62.855c0-.527-.214-1.042-.586-1.414a2.01 2.01 0 00-1.414-.586h-91.284a2.01 2.01 0 00-1.414.586 2.008 2.008 0 00-.586 1.414v19.282c0 .527.213 1.042.586 1.415.372.372.887.585 1.414.585h91.284c.526 0 1.042-.213 1.414-.585.372-.373.586-.888.586-1.415h-2zm-91.284 12.308v2h89.284v28.818h-87.284V94.445h-2v2-2h-2v32.818c0 .526.213 1.041.586 1.413a2.01 2.01 0 001.414.587h91.284c.526 0 1.042-.214 1.414-.587.372-.372.586-.887.586-1.413V94.445c0-.525-.214-1.041-.586-1.413a2.016 2.016 0 00-1.414-.587h-91.284a2.01 2.01 0 00-1.414.587 2.008 2.008 0 00-.586 1.413h2z" fill="#000"/><path d="M805.639 112.855h91.284a2 2 0 100-4h-91.284a2 2 0 000 4z" fill="#000"/><path d="M864.501 94.445v32.818a2 2 0 004 0V94.445a2 2 0 00-4 0zm-30.444 0v32.818a2 2 0 004 0V94.445a2 2 0 00-4 0zm-28.418 55.35h91.284a2 2 0 100-4h-91.284a2 2 0 000 4zm0 11.468h91.284a2 2 0 000-4h-91.284a2 2 0 100 4zm0 11.466h91.284a1.999 1.999 0 100-4h-91.284a2 2 0 000 4z" fill="#000"/><path d="M967.321 326.39c0-2.66 2.159-4.81 4.818-4.81h82.421c2.66 0 4.82 2.15 4.82 4.81v95.89a4.821 4.821 0 01-4.82 4.817h-82.421a4.82 4.82 0 01-4.818-4.817v-95.89" fill="#E8F2FC"/><path d="M967.321 326.39h2a2.819 2.819 0 012.818-2.81h82.421a2.815 2.815 0 012.82 2.81v95.89a2.827 2.827 0 01-2.82 2.817h-82.421a2.8 2.8 0 01-1.992-.826 2.801 2.801 0 01-.826-1.991v-95.89h-4v95.89a6.82 6.82 0 006.818 6.817h82.421a6.818 6.818 0 006.82-6.817v-95.89a6.81 6.81 0 00-6.82-6.81h-82.421a6.814 6.814 0 00-6.818 6.81h2" fill="#000"/><path d="M1051.24 355.937c0 .664-.53 1.2-1.2 1.2h-73.379c-.665 0-1.2-.536-1.2-1.2v-23.945c0-.664.535-1.208 1.2-1.208h73.379c.67 0 1.2.544 1.2 1.208v23.945z" fill="#3B94EC"/><path d="M1022.51 377.347h-2 1.07v-1.071c-.59.001-1.07.465-1.07 1.071h1.07v-1.071h-15.64v1.071h1.07a1.07 1.07 0 00-1.07-1.071v1.071h1.07v-8.179h-1.07v1.067c.6-.004 1.07-.483 1.07-1.067h-1.07v1.067h15.64v-1.067h-1.07c0 .597.47 1.061 1.07 1.067v-1.067h-1.07v8.179h4v-8.179a2.935 2.935 0 00-2.93-2.933h-15.64a2.929 2.929 0 00-2.93 2.933v8.179a2.934 2.934 0 002.93 2.928h15.64a2.931 2.931 0 002.93-2.928h-2m27.79 0h-2 1.07v-1.071c-.59 0-1.07.479-1.07 1.071h1.07v-1.071h-15.63v1.071h1.07a1.07 1.07 0 00-1.07-1.071v1.071h1.07v-8.179h-1.07v1.067c.6-.004 1.07-.483 1.07-1.067h-1.07v1.067h15.63v-1.067h-1.07c0 .584.47 1.063 1.07 1.067v-1.067h-1.07v8.179h4v-8.179c0-1.615-1.3-2.93-2.93-2.933h-15.63a2.929 2.929 0 00-2.93 2.933v8.179a2.934 2.934 0 002.93 2.928h15.63a2.927 2.927 0 002.93-2.928h-2m-55.592 0h-2 1.075v-1.071c-.594 0-1.074.486-1.075 1.071h1.075v-1.071h-15.636v1.071l.757-.758a1.072 1.072 0 00-.757-.313v1.071l.757-.758-.757.758h1.072a1.082 1.082 0 00-.315-.758l-.757.758h1.072v-8.179h-1.072v1.067c.598 0 1.07-.49 1.072-1.067h-1.072v1.067h15.636v-1.067h-1.075a1.074 1.074 0 001.075 1.067v-1.067h-1.075v8.179h4v-8.179a2.932 2.932 0 00-2.925-2.933h-15.636a2.928 2.928 0 00-2.928 2.933v8.179a2.923 2.923 0 002.928 2.928h15.636a2.93 2.93 0 002.07-.857 2.934 2.934 0 00.855-2.071h-2m27.802 19.362h-2 1.07v-1.07c-.59.001-1.07.469-1.07 1.07h1.07v-1.07h-15.64v1.07h1.07c0-.589-.48-1.069-1.07-1.07v1.07h1.07v-8.178h-1.07v1.071a1.07 1.07 0 001.07-1.071h-1.07v1.071h15.64v-1.071h-1.07c.01.608.48 1.068 1.07 1.071v-1.071h-1.07v8.178h4v-8.178a2.934 2.934 0 00-2.93-2.929h-15.64a2.933 2.933 0 00-2.93 2.929v8.178a2.943 2.943 0 002.93 2.93h15.64a2.934 2.934 0 002.93-2.93h-2zm27.79 0h-2 1.07v-1.07c-.59.001-1.07.481-1.07 1.07h1.07v-1.07h-15.63v1.07h1.07c0-.589-.48-1.069-1.07-1.07v1.07h1.07v-8.178h-1.07v1.071a1.07 1.07 0 001.07-1.071h-1.07v1.071h15.63v-1.071h-1.07c.01.594.48 1.069 1.07 1.071v-1.071h-1.07v8.178h4v-8.178a2.927 2.927 0 00-2.93-2.929h-15.63a2.927 2.927 0 00-2.93 2.929v8.178a2.93 2.93 0 002.93 2.93h15.63a2.93 2.93 0 002.93-2.93h-2zm-55.592 0h-2 1.069l-.756-.754a1.073 1.073 0 00-.313.754h1.069l-.756-.754.762.759v-1.075a1.076 1.076 0 00-.762.316l.762.759v-1.075h-15.636v1.072l.758-.758a1.077 1.077 0 00-.758-.314v1.072l.758-.758-.757.756h1.071a1.086 1.086 0 00-.314-.756l-.757.756h1.071v-8.178h-1.072v1.071a1.078 1.078 0 001.072-1.071h-1.072v1.071h15.636v-1.071h-1.075c.001.587.477 1.07 1.075 1.071v-1.071h-1.075v8.178h4v-8.178a2.929 2.929 0 00-2.925-2.929h-15.636a2.929 2.929 0 00-2.928 2.929v8.178a2.928 2.928 0 002.928 2.93h15.636a2.924 2.924 0 002.925-2.93h-2m0 19.987h-2 1.075v-1.076a1.08 1.08 0 00-1.075 1.076h1.075v-1.076h-15.636v1.069l.754-.756a1.073 1.073 0 00-.754-.313v1.069l.754-.756-.76.763h1.078a1.085 1.085 0 00-.318-.763l-.76.763h1.078v-8.184h-1.072l.756.757c.194-.189.317-.474.316-.757h-1.072l.756.757-.756-.756v1.071c.282.001.566-.12.756-.315l-.756-.756v1.071h15.636v-1.075l-.76.759c.189.193.473.317.76.316v-1.075l-.76.759.756-.756h-1.071c-.001.283.121.567.315.756l.756-.756h-1.071v8.184h4v-8.184a2.923 2.923 0 00-2.925-2.928h-15.636a2.927 2.927 0 00-2.928 2.928v8.184c-.002.8.33 1.548.86 2.071.525.526 1.27.854 2.068.853h15.636a2.922 2.922 0 002.925-2.924h-2" fill="#000"/><path d="M1050.36 416.696c0 .512-.41.924-.93.924h-43.26a.922.922 0 01-.93-.924v-8.184c0-.515.41-.928.93-.928h43.26c.52 0 .93.413.93.928v8.184z" fill="#3B94EC"/><path d="M72.912 166.4c0-4.367.676-8.569 1.93-12.516a2 2 0 00-3.812-1.211 45.254 45.254 0 00-2.118 13.727 2 2 0 104 0zm7.579-23.849a41.494 41.494 0 018.816-9.096 2 2 0 00-2.414-3.19 45.539 45.539 0 00-9.666 9.974 2 2 0 003.264 2.312zm19.965-15.102a41.142 41.142 0 0112.446-2.322 2.001 2.001 0 00-.124-3.999 45.204 45.204 0 00-13.653 2.549 2 2 0 001.332 3.772h-.001zm25.717-2.344h2.82a45.35 45.35 0 0010.887-1.316 2.002 2.002 0 00-.959-3.884 41.5 41.5 0 01-9.928 1.202h-2.82a1.999 1.999 0 100 4v-.002zm26.522-6.688a45.522 45.522 0 0010.578-8.998 2 2 0 10-3.025-2.616 41.562 41.562 0 01-9.649 8.208 2 2 0 102.096 3.406zm17.948-20.772a44.988 44.988 0 003.437-13.46 2 2 0 00-3.981-.382 41.05 41.05 0 01-3.134 12.266 2.002 2.002 0 001.051 2.627 2.002 2.002 0 002.627-1.05" fill="#000"/><path d="M226.357 54.267c0-10.074-7.662-18.355-17.476-19.34C207.673 15.9 191.865.837 172.529.837c-16.397 0-30.26 10.83-34.83 25.73-11.986 1.138-21.366 11.223-21.366 23.509 0 13.049 10.576 23.625 23.624 23.625l.168-.008v.008h66.872v-.003c10.699-.04 19.36-8.722 19.36-19.43m112.899 3.791c0-5.763-4.384-10.502-10-11.064-.689-10.888-9.735-19.508-20.799-19.508-9.384 0-17.316 6.197-19.93 14.722-6.859.651-12.226 6.423-12.226 13.452 0 7.467 6.051 13.518 13.518 13.518l.096-.004v.004h38.264v-.002c6.122-.021 11.077-4.99 11.077-11.118z" fill="#D8E5EF"/><path d="M307.36 139.567l11.731-9.851-1.286-1.532-1.549 1.267c.003.001 5.097 6.232 5.552 6.784a1.998 1.998 0 002.824.266l11.667-9.714a2.001 2.001 0 00-2.559-3.075l-11.667 9.715 1.28 1.537 1.544-1.271-2.938-3.589-2.606-3.187a2.004 2.004 0 00-2.834-.265l-11.731 9.851a2 2 0 002.572 3.064" fill="#000"/><path d="M330.293 124.5l6.959.715.204.009h.22v-2l-1.985-.247-.863 6.942a1.999 1.999 0 103.969.494l.863-6.941a2.007 2.007 0 00-.485-1.572 2.01 2.01 0 00-1.499-.676h-.119l-6.856-.703a2 2 0 00-.408 3.979" fill="#000"/><path d="M307.779 261.707h-11.864v-25.003h11.864v25.003zm18.726-.192h-11.862v-38.947h11.862v38.947zm18.731 0h-11.865v-49.042h11.865v49.042z" fill="#3B94EC"/><path d="M368.449 237.707h-2c-.001 12.32-4.988 23.456-13.061 31.532-8.076 8.073-19.211 13.06-31.531 13.061-12.321-.001-23.456-4.988-31.532-13.061-8.072-8.076-13.058-19.212-13.06-31.532.002-12.322 4.988-23.456 13.06-31.532 8.076-8.074 19.211-13.06 31.532-13.062 12.32.002 23.455 4.988 31.532 13.062 8.072 8.076 13.059 19.21 13.06 31.532h4c-.001-26.839-21.754-48.592-48.592-48.594-26.838.002-48.59 21.755-48.592 48.594.002 26.837 21.754 48.592 48.592 48.593 26.838-.001 48.591-21.756 48.592-48.593h-2" fill="#000"/><path d="M323.857 191.113v-34.117a2 2 0 00-4 0v34.117a2 2 0 104 0m-34.712 13.355l-24.95-23.268a2 2 0 00-2.728 2.925l24.95 23.268a2 2 0 102.728-2.925zm-13.908 34.493l-34.033 2.382a2 2 0 10.279 3.99l34.034-2.381a2.001 2.001 0 00-.28-3.991zm15.744 33.696l-21.472 26.514a2 2 0 003.11 2.517l21.47-26.513a2 2 0 00-3.108-2.518z" fill="#000"/><path d="M246.487 149.644a1.002 1.002 0 011.796 0l3.228 6.537c.278.57.824.966 1.453 1.056l7.217 1.051a1.001 1.001 0 01.552 1.708l-5.22 5.089a1.92 1.92 0 00-.554 1.708l1.232 7.187c.137.82-.719 1.444-1.454 1.057l-6.454-3.394a1.939 1.939 0 00-1.796 0l-6.456 3.394c-.734.387-1.592-.237-1.452-1.057l1.23-7.187c.11-.625-.1-1.265-.553-1.708l-5.224-5.089a1.002 1.002 0 01.555-1.708l7.218-1.051a1.928 1.928 0 001.454-1.056l3.228-6.537" fill="#3381E0"/><path d="M272.548 162.121h-2a23.079 23.079 0 01-6.784 16.379c-4.197 4.195-9.976 6.784-16.38 6.784-6.404 0-12.181-2.589-16.38-6.784a23.079 23.079 0 01-6.784-16.379c.001-6.404 2.589-12.182 6.784-16.38 4.199-4.196 9.976-6.784 16.38-6.785a23.076 23.076 0 0116.38 6.785c4.195 4.198 6.783 9.976 6.784 16.38h4c-.001-15.004-12.159-27.164-27.164-27.165-15.004.001-27.163 12.161-27.164 27.165.001 15.003 12.16 27.162 27.164 27.163 15.005-.001 27.163-12.16 27.164-27.163h-2zm74.473-31.47h-2c-.001 6.402-2.59 12.181-6.785 16.38a23.087 23.087 0 01-16.379 6.784c-6.402-.002-12.181-2.59-16.38-6.784-4.194-4.199-6.784-9.978-6.785-16.38.001-6.404 2.591-12.182 6.785-16.38 4.199-4.195 9.978-6.784 16.38-6.784 6.403 0 12.182 2.589 16.379 6.784 4.195 4.198 6.784 9.976 6.785 16.38h4c-.001-15.004-12.161-27.163-27.164-27.164-15.002.001-27.164 12.16-27.164 27.164 0 15.004 12.162 27.162 27.164 27.164 15.003-.002 27.163-12.16 27.164-27.164h-2zM240.385 243.337h-2c-.001 6.403-2.589 12.18-6.784 16.379-4.198 4.195-9.977 6.784-16.38 6.784-6.402 0-12.181-2.589-16.378-6.784-4.195-4.199-6.783-9.976-6.784-16.379.001-6.404 2.589-12.182 6.784-16.38 4.197-4.196 9.974-6.784 16.378-6.785 6.404.001 12.182 2.589 16.38 6.785 4.195 4.198 6.783 9.976 6.784 16.38h4c-.001-15.004-12.16-27.164-27.164-27.165-15.004.001-27.161 12.161-27.162 27.165.001 15.002 12.158 27.162 27.162 27.163 15.004-.001 27.163-12.161 27.164-27.163h-2z" fill="#000"/><path d="M220.556 235.795a5.336 5.336 0 01-5.336 5.336 5.336 5.336 0 010-10.671 5.334 5.334 0 015.336 5.335zm6.045 15.872l-3.44-7.728a8.915 8.915 0 00-1.702-2.556 7.947 7.947 0 01-6.239 3.026 7.949 7.949 0 01-6.236-3.026 8.912 8.912 0 00-1.701 2.556l-3.442 7.728c-.897 2.021.227 4.545 2.023 4.545h18.715c1.797 0 2.922-2.524 2.022-4.545" fill="#3381E0"/><path d="M283.9 324.7h-2c-.001 6.402-2.589 12.181-6.784 16.38-4.199 4.196-9.976 6.784-16.38 6.785-6.403-.001-12.181-2.589-16.379-6.785-4.194-4.199-6.784-9.978-6.784-16.38 0-6.403 2.59-12.181 6.784-16.379 4.198-4.194 9.976-6.782 16.379-6.784 6.404.002 12.181 2.59 16.38 6.784 4.195 4.198 6.783 9.976 6.784 16.379h4c-.001-15.003-12.16-27.161-27.164-27.163-15.003.002-27.161 12.16-27.163 27.163.002 15.004 12.16 27.164 27.163 27.165 15.005-.001 27.163-12.163 27.164-27.165h-2z" fill="#000"/><path d="M269.713 339.269h-21.954v-29.137h21.954v29.137z" fill="#D8DBD7"/><path d="M252.973 319.214H264.5a2 2 0 000-4h-11.527a2 2 0 000 4zm0 6.123H264.5a2 2 0 100-4h-11.527a2 2 0 000 4zm0 6.126H264.5a2 2 0 000-4h-11.527a2 2 0 000 4zM1049.22 42.957v-2c-9.48.004-18.1 2.88-24.44 7.643-3.17 2.383-5.77 5.245-7.59 8.475-1.81 3.226-2.84 6.828-2.84 10.602 0 5.211 1.96 10.072 5.24 14.114 3.29 4.048 7.89 7.316 13.32 9.514l.75-1.854-1.85-.758c-1.8 4.424-4.83 9.57-9.38 12.566a2.002 2.002 0 00-.78 2.345 2.009 2.009 0 002.1 1.311c3.75-.403 8.14-1.702 12.6-3.607 4.46-1.908 8.96-4.43 12.82-7.337l-1.2-1.598-.04 1.999c.4.008.83.021 1.29.021 9.48-.002 18.1-2.878 24.44-7.641 3.16-2.383 5.76-5.245 7.58-8.475 1.82-3.225 2.84-6.826 2.84-10.6s-1.02-7.376-2.84-10.601c-2.73-4.845-7.2-8.863-12.74-11.68-5.55-2.816-12.17-4.437-19.28-4.439v4c8.67-.002 16.48 2.655 22.03 6.839 2.78 2.09 4.99 4.555 6.5 7.24 1.51 2.688 2.33 5.59 2.33 8.641s-.82 5.952-2.33 8.64c-2.26 4.027-6.12 7.559-11.06 10.072-4.95 2.515-10.97 4.006-17.47 4.004-.38.002-.78-.012-1.21-.02-.45-.008-.89.135-1.25.403-3.55 2.679-7.8 5.068-11.98 6.855-4.18 1.79-8.29 2.974-11.45 3.306l.21 1.99 1.1 1.666c5.59-3.724 8.89-9.569 10.87-14.384.2-.494.2-1.042-.01-1.534-.21-.492-.6-.878-1.09-1.078-4.88-1.973-8.92-4.885-11.71-8.326-2.8-3.45-4.34-7.39-4.35-11.594.01-3.052.82-5.953 2.33-8.641 2.26-4.028 6.12-7.56 11.07-10.073 4.95-2.515 10.97-4.007 17.47-4.006v-2z" fill="#000"/><path d="M1036.55 67.599a4.694 4.694 0 11-9.39 0 4.695 4.695 0 119.39 0zm17.74.113c0 2.596-2.1 4.699-4.7 4.699-2.59 0-4.7-2.103-4.7-4.699a4.703 4.703 0 014.7-4.697c2.6 0 4.7 2.104 4.7 4.697zm17.75 0a4.696 4.696 0 11-9.39 0 4.694 4.694 0 119.39 0z" fill="#3B94EC"/><path d="M1067.71 127.824v-2c-15.17.063-27.45 12.369-27.45 27.549 0 15.222 12.34 27.556 27.56 27.558 15.22-.002 27.55-12.336 27.55-27.558a2.02 2.02 0 00-.58-1.414 2.019 2.019 0 00-1.42-.586h-23.66v-23.549c0-.535-.21-1.04-.58-1.417a1.995 1.995 0 00-1.42-.583v2h-2v25.549a2.009 2.009 0 002 2h25.66v-2h-2c0 6.512-2.63 12.388-6.9 16.658a23.448 23.448 0 01-16.65 6.9 23.49 23.49 0 01-16.66-6.9c-4.26-4.27-6.9-10.146-6.9-16.658 0-12.974 10.5-23.498 23.46-23.549l-.01-2h-2 2z" fill="#000"/><path d="M1074.08 123.595l-.1.005v23.516h23.62c0-12.991-10.53-23.521-23.52-23.521z" fill="#3B94EC"/><path d="M153.08 190.228h-9.289v-25.405h9.289v25.405" fill="#D8E5EF"/><path d="M153.08 190.228v-2h-7.289v-21.405h5.289v23.405h2v-2 2h1.999v-25.405c0-.527-.212-1.043-.586-1.415a2.014 2.014 0 00-1.413-.585h-9.289c-.527 0-1.043.213-1.415.585a2.015 2.015 0 00-.585 1.415v25.405c0 .527.213 1.043.585 1.415.372.372.888.585 1.415.585h9.289c.525 0 1.041-.213 1.413-.585.374-.372.586-.888.586-1.415h-1.999" fill="#000"/><path d="M169.828 190.035h-9.287v-39.578h9.287v39.578z" fill="#D8E5EF"/><path d="M169.828 190.035v-2h-7.287v-35.578h5.287v37.578h2v-2 2h2v-39.578c0-.526-.213-1.041-.585-1.413a2.016 2.016 0 00-1.415-.587h-9.287a2.01 2.01 0 00-1.413.587 2.01 2.01 0 00-.587 1.413v39.578c0 .526.214 1.041.587 1.414.372.372.887.586 1.413.586h9.287a2.02 2.02 0 001.415-.586c.372-.373.585-.888.585-1.414h-2z" fill="#000"/><path d="M186.581 190.035h-9.289v-49.834h9.289v49.834z" fill="#D8E5EF"/><path d="M186.581 190.035v-2h-7.289v-45.834h5.289v47.834h2v-2 2h1.999v-49.834c0-.526-.212-1.041-.585-1.414a2.015 2.015 0 00-1.414-.586h-9.289c-.527 0-1.043.214-1.415.586a2.016 2.016 0 00-.585 1.414v49.834c0 .526.213 1.041.585 1.414.372.372.888.586 1.415.586h9.289c.526 0 1.042-.214 1.414-.586.373-.373.585-.888.585-1.414h-1.999zm-42.79 10.346h42.79a2 2 0 000-4h-42.79a2 2 0 100 4z" fill="#000"/><path d="M1050.48 293.257h-13.45v-36.788h13.45v36.788zm24.25-.281h-13.44v-57.308h13.44v57.308zm24.26 0h-13.45v-72.159h13.45v72.159z" fill="#3B94EC"/><path d="M1037.03 307.061h61.96c1.1 0 2-.894 2-2 0-1.104-.9-2-2-2h-61.96c-1.11 0-2 .896-2 2 0 1.106.89 2 2 2" fill="#000"/><path d="M103.444 290.925c7.505.002 13.586 14.399 13.586 32.152 0 10.98-2.326 20.663-5.874 26.461-.547.898-.924 2.323-.924 3.906v10.66c0 3.752-1.026 4.277-2.446 4.336h3.158c4.723 0 8.563.393 8.563-4.336v-10.66c0-1.583.894-3.008 2.192-3.906 8.396-5.798 13.897-15.481 13.897-26.461 0-17.753-14.387-32.15-32.152-32.152z" fill="#D8DBD7"/><path d="M135.603 323.077h2c-.002-18.858-15.284-34.15-34.158-34.152-18.86.002-34.147 15.294-34.148 34.152 0 11.659 5.845 21.956 14.77 28.108l-.005-.005c.416.289.76.663.987 1.055.226.396.34.797.34 1.209v10.66c0 1.239.214 2.364.742 3.341a4.96 4.96 0 001.606 1.767c.967.647 2.018.92 3.056 1.069 1.044.147 2.11.164 3.204.166.646 0 1.3-.009 1.96-.009h14.992c.658 0 1.313.009 1.958.009.972 0 1.923-.016 2.855-.122.698-.08 1.39-.209 2.073-.45 1.015-.351 2.052-1.026 2.727-2.075.679-1.044.954-2.305.952-3.696v-10.66c.001-.412.114-.813.341-1.208.225-.392.57-.764.988-1.053 8.913-6.151 14.76-16.447 14.76-28.106h-4c0 10.302-5.156 19.371-13.034 24.815a7.32 7.32 0 00-2.176 2.34 6.406 6.406 0 00-.879 3.212v10.66c0 .786-.139 1.217-.258 1.436a.968.968 0 01-.325.356c-.222.155-.677.328-1.381.425-.697.1-1.608.127-2.643.126-.612 0-1.269-.007-1.958-.007H95.957c-.69 0-1.346.007-1.96.007-.92.001-1.742-.021-2.404-.096-.496-.055-.9-.143-1.186-.246-.44-.167-.577-.293-.714-.489-.13-.198-.302-.623-.304-1.512v-10.66a6.403 6.403 0 00-.877-3.211 7.348 7.348 0 00-2.167-2.337l-.006-.004c-7.89-5.445-13.042-14.512-13.042-24.815 0-8.33 3.371-15.856 8.83-21.32 5.463-5.46 12.988-8.83 21.318-8.832 8.338.002 15.865 3.372 21.328 8.832 5.459 5.464 8.829 12.99 8.83 21.32h2" fill="#000"/><path d="M108.122 336.626v23.478a2 2 0 004 0v-23.478a2 2 0 00-4 0zm-13.775-2.205v25.683a2 2 0 004 0v-25.683a2 2 0 10-4 0z" fill="#000"/><path d="M94.727 332.711a5.311 5.311 0 01-3.284 1.114 5.392 5.392 0 01-3.829-1.588 5.373 5.373 0 01-1.587-3.819 5.398 5.398 0 011.588-3.831 5.387 5.387 0 013.828-1.588 6.579 6.579 0 012.264.397c1.101.394 2.251 1.115 3.545 2.199 1.29 1.081 2.71 2.512 4.335 4.225l.028.029c2.433 2.458 4.327 4.367 6.307 5.763.991.695 2.014 1.257 3.114 1.639 1.1.384 2.267.575 3.488.574 5.189-.005 9.399-4.214 9.403-9.407-.004-5.2-4.214-9.416-9.403-9.418a9.39 9.39 0 00-5.73 1.925 2 2 0 002.422 3.184 5.365 5.365 0 013.308-1.11 5.37 5.37 0 013.816 1.588 5.397 5.397 0 011.587 3.831 5.383 5.383 0 01-1.586 3.82 5.376 5.376 0 01-3.817 1.587 6.468 6.468 0 01-2.177-.353c-1.011-.349-2.06-.999-3.333-2.068-1.271-1.064-2.741-2.529-4.554-4.367l-1.423 1.407 1.45-1.379c-2.212-2.324-4.136-4.266-6.19-5.71-1.027-.72-2.093-1.312-3.236-1.723a10.546 10.546 0 00-3.618-.632c-5.2.001-9.413 4.218-9.416 9.418.003 5.193 4.217 9.403 9.416 9.407a9.32 9.32 0 005.719-1.941 2 2 0 00-2.435-3.173" fill="#000"/><path d="M112.32 375.668a9.31 9.31 0 01-9.311 9.313c-5.134 0-9.303-4.169-9.303-9.313 0-5.14 4.17-5.079 9.303-5.079 5.144 0 9.311-.061 9.311 5.079" fill="#fff"/><path d="M112.32 375.668h-2a7.288 7.288 0 01-2.141 5.172 7.283 7.283 0 01-5.17 2.141 7.265 7.265 0 01-5.162-2.141 7.29 7.29 0 01-2.141-5.172c.001-1.001.195-1.536.388-1.842.152-.233.319-.39.618-.561.44-.252 1.215-.464 2.25-.564 1.032-.105 2.298-.113 3.691-.112h.713c1.24-.001 2.379.006 3.343.082.723.055 1.345.152 1.827.288.362.101.643.222.85.348.312.195.473.365.636.681.157.318.298.838.298 1.68h4c.002-1.511-.302-2.866-1.01-3.983a5.618 5.618 0 00-2.053-1.916c-1.195-.657-2.48-.91-3.794-1.048-1.318-.131-2.692-.132-4.097-.132h-.713c-1.247 0-2.471.001-3.65.094-.887.069-1.75.189-2.593.424a7.41 7.41 0 00-1.84.776 5.585 5.585 0 00-2.156 2.342c-.496 1.01-.708 2.164-.708 3.443.001 6.248 5.062 11.311 11.303 11.313 6.249-.001 11.31-5.065 11.311-11.313h-2" fill="#000"/><path d="M87.381 356.985v9.96c0 3.366 2.744 6.09 6.122 6.09H113.4c3.379 0 6.119-2.724 6.119-6.09v-9.96H87.381z" fill="#fff"/><path d="M87.381 356.985h-2v9.96c.003 4.479 3.647 8.09 8.122 8.09h19.896a8.12 8.12 0 005.738-2.366 8.054 8.054 0 002.382-5.724v-9.96c0-.526-.213-1.042-.585-1.414a2.017 2.017 0 00-1.415-.586H87.381c-.526 0-1.041.214-1.414.586a2.013 2.013 0 00-.586 1.414h2v2h30.138v7.96a4.046 4.046 0 01-1.203 2.888c-.75.744-1.77 1.2-2.917 1.202H93.503a4.123 4.123 0 01-2.918-1.202 4.049 4.049 0 01-1.204-2.888v-9.96h-2v2-2" fill="#000"/><path d="M111.347 244.753c0 24.256-19.663 43.919-43.922 43.916-24.255.002-43.921-19.661-43.921-43.918 0-24.259 19.666-43.919 43.921-43.919 24.26 0 43.924 19.661 43.922 43.921" fill="#3B94EC"/><path d="M104.711 244.753c-.002 20.591-16.695 37.279-37.285 37.279-20.589 0-37.283-16.688-37.283-37.281 0-20.592 16.694-37.282 37.284-37.28 20.59.001 37.282 16.689 37.284 37.282zm-55.318-16.378l18.474 16.485z" fill="#fff"/><path d="M48.062 229.867l18.474 16.485a2 2 0 102.662-2.984l-18.473-16.485a2 2 0 10-2.663 2.984" fill="#070707"/><path d="M78.449 232.429l-11.192 12.132-.7-.84" fill="#fff"/><path d="M76.98 231.073l-11.194 12.132 1.47 1.356 1.537-1.278-.699-.84a2 2 0 10-3.074 2.558l.7.84 1.46 1.754 12.74-13.81a2 2 0 10-2.94-2.712z" fill="#070707"/><path d="M71.663 244.751a4.24 4.24 0 01-4.234 4.242 4.242 4.242 0 01-4.239-4.242 4.236 4.236 0 018.473 0z" fill="#fff"/><path d="M71.663 244.751h-2a2.244 2.244 0 01-2.236 2.242 2.244 2.244 0 01-2.237-2.242 2.242 2.242 0 012.237-2.236 2.241 2.241 0 012.236 2.236h4a6.237 6.237 0 00-12.473 0 6.242 6.242 0 006.237 6.242 6.242 6.242 0 006.236-6.242h-2z" fill="#070707"/><path d="M67.427 214.737l.002 5.746z" fill="#fff"/><path d="M65.427 214.739l.002 5.744a2 2 0 004 0l-.002-5.746a2.001 2.001 0 00-4 .002zm3.998 60.028v-5.743a2 2 0 00-4 0v5.743a2 2 0 004 0zm28.015-32.014h-5.742a2 2 0 000 4h5.742a2 2 0 000-4z" fill="#070707"/><path d="M1095.05 393.302l.13-24.65a2.03 2.03 0 012.03-2.015v-.04.04-.04.04-1.798l-.11 1.794.11.004v-1.798l-.11 1.794.12.004.8.004c1.11.003 2.02.92 2.01 2.026h1.51l-1.51-.015v.015h1.51l-1.51-.015c0 .016 0 .135.03.323l1.97-.29-2-.009-.16 32.956c-.01 2.215-1.83 4.018-4.03 4.016h-.1l.06 2 .01-2-4.54-.012h.01a4.044 4.044 0 01-4.02-4.037h-.03l.03.001v-.001h-.03l.03.001-1.83-.015 1.82.176.01-.161-1.83-.015 1.82.176.01-.184.21-44.254c.02-3.54 2.92-6.423 6.46-6.419h.01l.01-1.305-.05 1.303.04.002.01-1.305-.05 1.303.07.002 7.55.016c3.54.013 6.42 2.913 6.42 6.451v.131l2-.088-2-.009-.18 35.748c0 1.106.89 2.004 1.99 2.011a1.995 1.995 0 002.01-1.991l.18-35.749-.01-.098-1.49.066 1.5.001-.01-.067-1.49.066 1.5.001v-.022c-.01-5.746-4.65-10.419-10.4-10.451h-.01l-7.56-.016v2l.07-1.999-.11-.001c-5.75.004-10.42 4.647-10.46 10.398l-.21 44.257 2 .009-1.99-.192-.01.192v.034l.67-.003h-.67v.003l.67-.003h-.67c0 4.419 3.57 8.01 8 8.037l4.54.012.07-.001-.05-1.482v1.483l.05-.001-.05-1.482v1.483h.02c4.41-.004 8-3.572 8.03-7.995l.16-32.957-.02-.3-1.9.279 1.92-.025-.02-.254-1.9.279 1.92-.025-1.79.023 1.79.017v-.04l-1.79.023 1.79.017v-.023a6.024 6.024 0 00-5.99-6.026l-.8-.004-.01 2 .12-1.996-.12-.004h-.03l.01.77v-.77h-.01l.01.77v-.77a6.029 6.029 0 00-6.03 5.995l-.13 24.649c0 1.106.89 2.006 1.99 2.011a1.991 1.991 0 002.01-1.99M55.077 87.723l1.02-10.002h10.277v2.355H58.26l-.606 5.47c.983-.58 2.099-.869 3.349-.869 1.826 0 3.278.604 4.352 1.814 1.076 1.206 1.612 2.84 1.612 4.897 0 2.065-.557 3.695-1.673 4.884-1.116 1.19-2.676 1.784-4.678 1.784-1.773 0-3.22-.492-4.34-1.475-1.12-.98-1.76-2.341-1.914-4.078h2.41c.156 1.149.565 2.014 1.226 2.598.662.583 1.534.875 2.618.875 1.184 0 2.116-.404 2.79-1.212.676-.81 1.013-1.925 1.013-3.35 0-1.34-.366-2.417-1.095-3.23-.73-.812-1.702-1.219-2.914-1.219-1.112 0-1.984.244-2.618.731l-.675.55-2.04-.523zm24.703-1.984c0-2.159-.303-3.732-.91-4.719-.606-.987-1.567-1.481-2.879-1.481-1.305 0-2.255.492-2.853 1.474-.596.983-.905 2.494-.923 4.534v4.077c0 2.168.315 3.768.944 4.801.628 1.034 1.582 1.551 2.86 1.551 1.257 0 2.192-.487 2.802-1.461.611-.972.93-2.508.96-4.602V85.74zm2.548 3.485c0 2.987-.509 5.204-1.529 6.656-1.019 1.45-2.613 2.176-4.78 2.176-2.141 0-3.726-.71-4.755-2.128-1.028-1.42-1.56-3.539-1.597-6.359v-3.402c0-2.948.509-5.14 1.528-6.572 1.02-1.434 2.62-2.15 4.796-2.15 2.157 0 3.747.691 4.767 2.074 1.02 1.381 1.543 3.516 1.57 6.4v3.305m14.715 4.708c0 .727.202 1.323.606 1.788.404.464.946.696 1.627.696.66 0 1.189-.227 1.583-.683.396-.454.593-1.074.593-1.857v-1.023c0-.726-.199-1.32-.599-1.781-.4-.46-.935-.69-1.606-.69-.652 0-1.182.229-1.59.683-.41.456-.614 1.071-.614 1.844v1.023zm-1.901-1.07c0-1.203.384-2.194 1.15-2.97.768-.776 1.752-1.164 2.955-1.164 1.204 0 2.192.385 2.962 1.159.773.77 1.158 1.794 1.158 3.072v.978c0 1.203-.383 2.192-1.149 2.968-.767.776-1.749 1.164-2.942 1.164-1.195 0-2.182-.382-2.962-1.149-.782-.767-1.172-1.79-1.172-3.067v-.992zm-5.056 3.403l-1.446-.909 9.795-15.68 1.446.91-9.795 15.68zm-2.81-13.632c0 .718.2 1.311.605 1.775.404.465.946.697 1.626.697.652 0 1.178-.225 1.578-.676.4-.452.599-1.068.599-1.852V81.57c0-.717-.198-1.31-.593-1.781-.394-.468-.932-.704-1.612-.704s-1.217.236-1.612.704c-.394.47-.592 1.083-.592 1.837v1.008zm-1.902-1.056c0-1.202.383-2.193 1.151-2.974.766-.782 1.751-1.172 2.954-1.172 1.222 0 2.213.393 2.97 1.178.757.784 1.136 1.803 1.136 3.052v.978c0 1.212-.383 2.202-1.15 2.969-.767.768-1.743 1.15-2.928 1.15-1.194 0-2.181-.382-2.963-1.15-.78-.767-1.17-1.788-1.17-3.065v-.966M51.58 104.913h53.738a1.333 1.333 0 000-2.666H51.581a1.333 1.333 0 100 2.666zm894.787-10.032h-2.562V77.892l-5.14 1.888v-2.315l7.303-2.741h.399v20.157m17.497-12.042c0-2.159-.303-3.731-.909-4.719-.606-.987-1.567-1.481-2.879-1.481-1.305 0-2.256.492-2.853 1.474-.596.983-.906 2.495-.923 4.534v4.077c0 2.168.315 3.77.944 4.801.628 1.034 1.581 1.551 2.859 1.551 1.258 0 2.193-.487 2.804-1.461.61-.972.929-2.507.957-4.602V82.84zm2.549 3.486c0 2.986-.509 5.203-1.529 6.655-1.02 1.45-2.613 2.177-4.781 2.177-2.14 0-3.726-.71-4.754-2.129-1.029-1.419-1.561-3.539-1.598-6.359v-3.402c0-2.948.509-5.14 1.529-6.572 1.02-1.434 2.619-2.15 4.796-2.15 2.157 0 3.747.691 4.767 2.074 1.018 1.382 1.542 3.516 1.57 6.4v3.306m13.296-3.486c0-2.159-.302-3.731-.909-4.719-.605-.987-1.567-1.481-2.88-1.481-1.304 0-2.255.492-2.852 1.474-.596.983-.905 2.495-.924 4.534v4.077c0 2.168.316 3.77.944 4.801.629 1.034 1.583 1.551 2.86 1.551 1.257 0 2.192-.487 2.803-1.461.61-.972.93-2.507.958-4.602V82.84zm2.548 3.486c0 2.986-.508 5.203-1.528 6.655-1.02 1.45-2.613 2.177-4.781 2.177-2.141 0-3.725-.71-4.753-2.129-1.03-1.419-1.562-3.539-1.599-6.359v-3.402c0-2.948.509-5.14 1.529-6.572 1.019-1.434 2.619-2.15 4.795-2.15 2.159 0 3.748.691 4.768 2.074 1.019 1.382 1.543 3.516 1.569 6.4v3.306m14.715 4.707c0 .727.201 1.323.607 1.788.402.464.945.696 1.625.696.66 0 1.186-.227 1.586-.681.39-.456.59-1.076.59-1.859v-1.023c0-.726-.2-1.32-.6-1.781-.4-.459-.933-.69-1.604-.69-.652 0-1.183.229-1.592.685-.408.454-.612 1.069-.612 1.842v1.023zm-1.901-1.07c0-1.203.384-2.193 1.15-2.969.767-.776 1.751-1.164 2.955-1.164 1.204 0 2.194.386 2.964 1.158.77.77 1.16 1.794 1.16 3.072v.978c0 1.203-.39 2.192-1.15 2.968-.77.776-1.75 1.164-2.946 1.164-1.195 0-2.181-.382-2.961-1.149-.782-.767-1.172-1.79-1.172-3.067v-.992zm-5.056 3.403l-1.447-.909 9.795-15.679 1.446.91-9.794 15.678zm-2.812-13.632c0 .718.202 1.311.606 1.775.404.465.946.697 1.626.697.652 0 1.178-.225 1.578-.676.4-.452.599-1.068.599-1.852V78.67c0-.717-.197-1.31-.592-1.78-.395-.469-.933-.705-1.612-.705-.68 0-1.217.236-1.612.705-.395.47-.593 1.082-.593 1.836v1.008zm-1.9-1.056c0-1.202.382-2.193 1.15-2.974.766-.782 1.751-1.172 2.955-1.172 1.221 0 2.212.393 2.969 1.178.758.786 1.136 1.803 1.136 3.052v.978c0 1.212-.382 2.204-1.15 2.969-.767.768-1.743 1.15-2.928 1.15-1.194 0-2.182-.382-2.963-1.15-.779-.765-1.169-1.788-1.169-3.065v-.966m-48.178 23.336h67.225c.74 0 1.34-.596 1.34-1.333 0-.736-.6-1.333-1.34-1.333h-67.225a1.333 1.333 0 100 2.666z" fill="#000"/></svg>