<svg xmlns="http://www.w3.org/2000/svg" viewBox="0 0 100 100"><defs><style>.cls-1{fill:none;stroke:#0056d3;stroke-miterlimit:10;stroke-width:2px}</style></defs><g id="Слой_1" data-name="Слой 1"><path class="cls-1" d="M48 59.31V46.59a4.65 4.65 0 014.79-4.5 4.65 4.65 0 014.79 4.5v12.72m0 0V51a4.61 4.61 0 014.71-4.5A4.61 4.61 0 0167 51v8.36"/><path class="cls-1" d="M67 59.31v-5.37a4.5 4.5 0 014.5-4.5 4.5 4.5 0 014.5 4.5v5.22c0 6.25-.47 30-4.5 35.15H41.11S28.67 73 24.75 61.11c-2.48-7.57 5.55-9.75 8.67-3.37C35.55 62.1 39 68.33 39 68.33V28.89a4.5 4.5 0 014.5-4.5 4.5 4.5 0 014.5 4.5v30.42m-5-42v-16m-11 28H16m54 0H54m-19.35-9.68l-7.9-7.9"/></g></svg>