<svg xmlns="http://www.w3.org/2000/svg" width="759" height="548" fill="none"><g filter="url(#filter0_d)"><path d="M60 110c0-19.33 15.67-35 35-35h551c19.33 0 35 15.67 35 35v311c0 19.33-15.67 35-35 35H95c-19.33 0-35-15.67-35-35V110z" fill="#F3F6F8"/></g><path d="M120 413.332c0 16.569 13.431 30 30 30h441.116c16.568 0 30-13.431 30-30V119c0-16.569-13.432-30-30-30H150c-16.569 0-30 13.431-30 30v294.332z" fill="#F3F6F8"/><path d="M621.117 105.735H120v-.673h501.117v.673zm0 246.375H120v-.673h501.117v.673z" fill="#E9E9E9"/><path d="M135.004 96.883a4.257 4.257 0 11-8.515 0 4.257 4.257 0 018.515 0z" fill="#918F90"/><path d="M133.211 96.883a2.465 2.465 0 11-4.93 0 2.465 2.465 0 014.93 0z" fill="#fff"/><path d="M132.288 96.883a1.54 1.54 0 11-3.081 0 1.54 1.54 0 013.081 0z" fill="#918F90"/><path d="M614.535 96.788a4.551 4.551 0 01-4.552 4.55h-6.561a4.551 4.551 0 110-9.102h6.561a4.552 4.552 0 014.552 4.552z" fill="#F2B60E"/><path d="M590.152 101.338h-6.561a4.552 4.552 0 110-9.102h6.561a4.552 4.552 0 110 9.102z" fill="#6BC12F"/><path d="M574.873 96.788a4.552 4.552 0 01-4.554 4.55h-6.559a4.551 4.551 0 110-9.102h6.559a4.552 4.552 0 014.554 4.552z" fill="#DC272D"/><path d="M204.161 96.882a4.37 4.37 0 01-4.37 4.371h-51.537a4.37 4.37 0 110-8.74h51.537a4.369 4.369 0 014.37 4.369z" fill="#E9E9E9"/><path d="M235.709 149.99a4.37 4.37 0 01-4.369 4.37h-51.539a4.37 4.37 0 010-8.741h51.539a4.37 4.37 0 014.369 4.371z" fill="url(#paint0_linear)"/><path d="M315.033 149.99a4.37 4.37 0 01-4.369 4.37h-51.538a4.37 4.37 0 110-8.741h51.538a4.37 4.37 0 014.369 4.371z" fill="#F7D44C"/><path d="M394.356 149.99a4.37 4.37 0 01-4.368 4.37H338.45a4.37 4.37 0 110-8.741h51.538a4.37 4.37 0 014.368 4.371z" fill="url(#paint1_linear)"/><path d="M473.681 149.99a4.37 4.37 0 01-4.369 4.37h-51.538a4.37 4.37 0 010-8.741h51.538a4.37 4.37 0 014.369 4.371z" fill="#EA2933"/><path d="M553.005 149.99a4.37 4.37 0 01-4.369 4.37h-51.538a4.37 4.37 0 110-8.741h51.538a4.37 4.37 0 014.369 4.371z" fill="#CCC4B2"/><path d="M120 127.134h57.047v-21.399H120v21.399z" fill="#E9E9E9"/><path d="M177.047 127.134h57.047v-21.399h-57.047v21.399z" fill="#F6F6F6"/><path d="M234.094 127.134h57.047v-21.399h-57.047v21.399z" fill="#F2F2F2"/><path d="M291.141 127.134h57.047v-21.399h-57.047v21.399z" fill="#E9E9E9"/><path d="M348.188 127.134h57.048v-21.399h-57.048v21.399z" fill="#F6F6F6"/><path d="M405.236 127.134h57.045v-21.399h-57.045v21.399z" fill="#F2F2F2"/><path d="M462.282 127.134h57.048v-21.399h-57.048v21.399z" fill="#F6F6F6"/><path d="M519.329 127.134h57.046v-21.399h-57.046v21.399z" fill="#fff"/><path d="M621.117 127.134h-44.742v-21.399h44.742v21.399z" fill="#F2F2F2"/><path d="M358.446 351.774h-23.042l-44.263 44.263 47.294 47.294h23.044l-47.294-47.294 44.261-44.263z" fill="#FF5F60" fill-opacity=".5"/><path d="M358.446 351.774l-44.261 44.263 47.294 47.294h259.638v-91.557H358.446z" fill="#F2F2F2"/><path d="M358.446 351.774l-44.261 44.263 47.294 47.294h259.638v-91.557H358.446z" fill="#FF5F60"/><path d="M419.212 313.568H308.788c-6.858 0-12.469-5.611-12.469-12.469V290.87c0-1.216.995-2.211 2.211-2.211h130.94c1.216 0 2.211.995 2.211 2.211v10.229c0 6.858-5.611 12.469-12.469 12.469z" fill="#E4A330"/><path d="M431.681 301.099V290.87a2.218 2.218 0 00-2.211-2.211h-6.947c-15.974 12.499-44.274 19.924-69.222 24.909h65.911c6.858 0 12.469-5.611 12.469-12.469" fill="#E1972F"/><path d="M425.526 260.084H302.474a2.698 2.698 0 00-2.69 2.69v4.401a2.699 2.699 0 002.69 2.69h123.052a2.699 2.699 0 002.69-2.69v-4.401c0-1.48-1.211-2.69-2.69-2.69" fill="#C72B2C"/><path d="M408.145 288.659h11.884c4.355 0 7.917-3.563 7.917-7.917v-2.96c0-2.804-1.482-5.274-3.697-6.681-2.466 8.141-10.42 14.16-16.104 17.558" fill="#7C4226"/><path d="M425.704 260.403H303.559c-2.36-1.711-3.775-3.126-3.775-4.855V242.67a3.153 3.153 0 013.143-3.144h122.146a3.153 3.153 0 013.143 3.144v12.878c0 1.729-1.415 3.144-2.512 4.855" fill="#A35F30"/><path d="M433.568 246.56l-5.502-10.921H299.934l-5.502 10.921c-2.819 5.597 6.385 6.912 9.34 5.09 1.207-.744 2.116-1.929 3.288-2.713 3.802-2.544 8.039-1.057 11.275 1.835 0 0 10.624 11.372 20.489.895 3.294-3.499 7.304-5.378 11.753-3.004 4.028 2.15 7.082 6.365 11.362 7.952 2.96 1.097 6.218.144 8.661-1.906 1.645-1.38 2.513-3.516 4.313-4.677 4.659-3.005 10.4-2.468 14.263 1.635 9.865 10.477 20.489-.895 20.489-.895 3.236-2.892 7.473-4.379 11.275-1.835 1.171.784 2.081 1.969 3.288 2.713 2.955 1.822 12.159.507 9.34-5.09" fill="#4D713D"/><path d="M297.421 237.539c0-25.009 28.731-53.107 65.289-53.107 36.557 0 67.648 28.098 67.648 53.107H297.421z" fill="#E4A330"/><path d="M403.155 197.31c-7.935 21.009-26.183 33.289-41.805 40.229h68.927c-.3-16.089-13.531-32.829-27.122-40.229z" fill="#E1972F"/><path d="M339.043 202.804c-1.329 1.582-2.987 2.376-3.704 1.774-.716-.602-.22-2.373 1.109-3.954 1.329-1.582 2.987-2.376 3.704-1.774.716.603.22 2.373-1.109 3.954zm47.922.378c-1.789 1.032-3.619 1.213-4.087.402-.468-.81.603-2.305 2.392-3.338 1.789-1.032 3.619-1.213 4.087-.402.468.81-.603 2.305-2.392 3.338zm-23.531-.369c-.43 2.02-1.521 3.5-2.437 3.305-.915-.195-1.308-1.991-.878-4.012.43-2.02 1.521-3.5 2.437-3.305.915.195 1.308 1.991.878 4.012zm-11.14-7.576c1.365 1.552 1.901 3.31 1.198 3.928-.702.619-2.378-.138-3.743-1.689-1.364-1.551-1.9-3.31-1.198-3.928.703-.618 2.379.138 3.743 1.689m23.293.471c1.919.763 3.196 2.086 2.851 2.956-.346.87-2.182.957-4.102.195-1.92-.763-3.197-2.086-2.851-2.956.345-.87 2.182-.957 4.102-.195z" fill="#fff"/><path d="M323.301 260.96l33.647 9.566h20.843s-20.25-9.203-54.49-9.566" fill="#AD262B"/><path d="M424.732 288.659H303.268a4.455 4.455 0 01-4.442-4.441v-9.912a4.454 4.454 0 014.442-4.441h121.464a4.454 4.454 0 014.442 4.441v9.912a4.455 4.455 0 01-4.442 4.441" fill="#844D29"/><path d="M354.484 269.865s32.184 9.367 41.857 16.605l17.513-16.34-59.37-.265" fill="#7C4226"/><path d="M395.818 281.23l20.025-20.783-97.453-.044s44.361 3.067 77.428 20.827z" fill="#EEC131"/><path d="M301.196 233.676s8.053-35.54 47.93-43.437c0 0-29.926 16.754-47.93 43.437z" fill="#EBBA63"/><defs><linearGradient id="paint0_linear" x1="175.431" y1="149.99" x2="235.709" y2="149.99" gradientUnits="userSpaceOnUse"><stop stop-color="#90C3B8"/><stop offset="1" stop-color="#A4D2C5"/></linearGradient><linearGradient id="paint1_linear" x1="334.14" y1="148.596" x2="394.297" y2="151.381" gradientUnits="userSpaceOnUse"><stop stop-color="#75C82B"/><stop offset="1" stop-color="#5CB533"/></linearGradient><filter id="filter0_d" x="10" y="55" width="691" height="451" filterUnits="userSpaceOnUse" color-interpolation-filters="sRGB"><feFlood flood-opacity="0" result="BackgroundImageFix"/><feColorMatrix in="SourceAlpha" values="0 0 0 0 0 0 0 0 0 0 0 0 0 0 0 0 0 0 127 0" result="hardAlpha"/><feOffset dx="-15" dy="15"/><feGaussianBlur stdDeviation="17.5"/><feComposite in2="hardAlpha" operator="out"/><feColorMatrix values="0 0 0 0 0 0 0 0 0 0 0 0 0 0 0 0 0 0 0.22 0"/><feBlend in2="BackgroundImageFix" result="effect1_dropShadow"/><feBlend in="SourceGraphic" in2="effect1_dropShadow" result="shape"/></filter></defs></svg>