<svg xmlns="http://www.w3.org/2000/svg" width="759" height="548" fill="none"><g filter="url(#filter0_d)"><path fill-rule="evenodd" clip-rule="evenodd" d="M95 75c-19.33 0-35 15.67-35 35v311c0 19.33 15.67 35 35 35h551c19.33 0 35-15.67 35-35v-20.039h21c11.046 0 20-8.954 20-20V150.627c0-11.046-8.954-20-20-20h-21V110c0-19.33-15.67-35-35-35H95z" fill="#F3F6F8"/></g><rect x="94.367" y="130.627" width="197.164" height="270.335" rx="20" fill="#DBECFF"/><path d="M94.367 140.575c0-5.494 4.454-9.948 9.948-9.948h177.267c5.494 0 9.948 4.454 9.948 9.948H94.367z" fill="#FF5F60"/><rect x="113.325" y="165.229" width="158.826" height="56.662" rx="15" fill="#fff"/><rect x="113.325" y="246.546" width="158.826" height="56.662" rx="15" fill="#fff"/><rect x="113.325" y="327.863" width="158.826" height="56.662" rx="15" fill="#fff"/><rect x="309.602" y="130.627" width="197.164" height="270.335" rx="20" fill="#DBECFF"/><path d="M309.602 140.575c0-5.494 4.454-9.948 9.948-9.948h177.267c5.494 0 9.948 4.454 9.948 9.948H309.602z" fill="#FF5F60"/><rect x="328.56" y="165.229" width="158.826" height="56.662" rx="15" fill="#fff"/><rect x="328.56" y="246.546" width="158.826" height="56.662" rx="15" fill="#fff"/><rect x="328.56" y="327.863" width="158.826" height="56.662" rx="15" fill="#fff"/><rect x="524.836" y="130.627" width="197.164" height="270.335" rx="20" fill="#DBECFF"/><path d="M524.836 140.575c0-5.494 4.454-9.948 9.949-9.948h177.267c5.494 0 9.948 4.454 9.948 9.948H524.836z" fill="#FF5F60"/><rect x="543.794" y="165.229" width="158.826" height="56.662" rx="15" fill="#fff"/><rect x="543.794" y="246.546" width="158.826" height="56.662" rx="15" fill="#fff"/><rect x="543.794" y="327.863" width="158.826" height="56.662" rx="15" fill="#fff"/><defs><filter id="filter0_d" x="10" y="55" width="732" height="451" filterUnits="userSpaceOnUse" color-interpolation-filters="sRGB"><feFlood flood-opacity="0" result="BackgroundImageFix"/><feColorMatrix in="SourceAlpha" values="0 0 0 0 0 0 0 0 0 0 0 0 0 0 0 0 0 0 127 0" result="hardAlpha"/><feOffset dx="-15" dy="15"/><feGaussianBlur stdDeviation="17.5"/><feComposite in2="hardAlpha" operator="out"/><feColorMatrix values="0 0 0 0 0 0 0 0 0 0 0 0 0 0 0 0 0 0 0.22 0"/><feBlend in2="BackgroundImageFix" result="effect1_dropShadow"/><feBlend in="SourceGraphic" in2="effect1_dropShadow" result="shape"/></filter></defs></svg>