<svg xmlns="http://www.w3.org/2000/svg" width="759" height="548" fill="none"><g filter="url(#filter0_d)"><path fill-rule="evenodd" clip-rule="evenodd" d="M95 75c-19.33 0-35 15.67-35 35v311c0 19.33 15.67 35 35 35h551c19.33 0 35-15.67 35-35v-20.039h21c11.046 0 20-8.954 20-20V150.627c0-11.046-8.954-20-20-20h-21V110c0-19.33-15.67-35-35-35H95z" fill="#F3F6F8"/></g><rect x="94.367" y="130.627" width="197.164" height="270.335" rx="20" fill="#DBECFF"/><path d="M94.367 140.575c0-5.494 4.454-9.948 9.948-9.948h177.267c5.494 0 9.948 4.454 9.948 9.948H94.367z" fill="#FF5F60"/><rect x="115" y="328" width="158.826" height="56.662" rx="15" fill="#fff"/><circle cx="193" cy="235" r="75" fill="#F3F6F8"/><path fill-rule="evenodd" clip-rule="evenodd" d="M170.401 304l-28.665-19.672c10.931-16.825 29.892-27.953 51.452-27.953 22.151 0 41.558 11.747 52.333 29.351L216.443 304h-46.042z" fill="#FF5F60"/><path fill-rule="evenodd" clip-rule="evenodd" d="M193 310c41.421 0 75-33.579 75-75s-33.579-75-75-75-75 33.579-75 75 33.579 75 75 75zm0-7.5c37.279 0 67.5-30.221 67.5-67.5 0-37.279-30.221-67.5-67.5-67.5-37.279 0-67.5 30.221-67.5 67.5 0 37.279 30.221 67.5 67.5 67.5z" fill="#F3F6F8"/><circle cx="193" cy="222.625" r="27" fill="#FF5F60"/><rect x="309" y="131" width="197.164" height="270.335" rx="20" fill="#DBECFF"/><path d="M309 140.948c0-5.494 4.454-9.948 9.948-9.948h177.267c5.495 0 9.949 4.454 9.949 9.948H309z" fill="#FF5F60"/><rect x="329.633" y="328.373" width="158.826" height="56.662" rx="15" fill="#fff"/><circle cx="407.633" cy="235.373" r="75" fill="#F3F6F8"/><path fill-rule="evenodd" clip-rule="evenodd" d="M385.034 304.373l-28.665-19.671c10.931-16.826 29.892-27.954 51.452-27.954 22.151 0 41.558 11.747 52.333 29.351l-29.078 18.274h-46.042z" fill="#FF5F60"/><path fill-rule="evenodd" clip-rule="evenodd" d="M407.633 310.373c41.422 0 75-33.578 75-75 0-41.421-33.578-75-75-75-41.421 0-75 33.579-75 75 0 41.422 33.579 75 75 75zm0-7.5c37.28 0 67.5-30.22 67.5-67.5 0-37.279-30.22-67.5-67.5-67.5-37.279 0-67.5 30.221-67.5 67.5 0 37.28 30.221 67.5 67.5 67.5z" fill="#F3F6F8"/><circle cx="407.633" cy="222.998" r="27" fill="#FF5F60"/><rect x="525" y="131" width="197.164" height="270.335" rx="20" fill="#DBECFF"/><path d="M525 140.948c0-5.494 4.454-9.948 9.948-9.948h177.267c5.495 0 9.949 4.454 9.949 9.948H525z" fill="#FF5F60"/><rect x="545.633" y="328.373" width="158.826" height="56.662" rx="15" fill="#fff"/><circle cx="623.633" cy="235.373" r="75" fill="#F3F6F8"/><path fill-rule="evenodd" clip-rule="evenodd" d="M601.034 304.373l-28.665-19.671c10.931-16.826 29.892-27.954 51.452-27.954 22.151 0 41.558 11.747 52.333 29.351l-29.078 18.274h-46.042z" fill="#FF5F60"/><path fill-rule="evenodd" clip-rule="evenodd" d="M623.633 310.373c41.422 0 75-33.578 75-75 0-41.421-33.578-75-75-75-41.421 0-75 33.579-75 75 0 41.422 33.579 75 75 75zm0-7.5c37.28 0 67.5-30.22 67.5-67.5 0-37.279-30.22-67.5-67.5-67.5-37.279 0-67.5 30.221-67.5 67.5 0 37.28 30.221 67.5 67.5 67.5z" fill="#F3F6F8"/><circle cx="623.633" cy="222.998" r="27" fill="#FF5F60"/><defs><filter id="filter0_d" x="10" y="55" width="732" height="451" filterUnits="userSpaceOnUse" color-interpolation-filters="sRGB"><feFlood flood-opacity="0" result="BackgroundImageFix"/><feColorMatrix in="SourceAlpha" values="0 0 0 0 0 0 0 0 0 0 0 0 0 0 0 0 0 0 127 0" result="hardAlpha"/><feOffset dx="-15" dy="15"/><feGaussianBlur stdDeviation="17.5"/><feComposite in2="hardAlpha" operator="out"/><feColorMatrix values="0 0 0 0 0 0 0 0 0 0 0 0 0 0 0 0 0 0 0.22 0"/><feBlend in2="BackgroundImageFix" result="effect1_dropShadow"/><feBlend in="SourceGraphic" in2="effect1_dropShadow" result="shape"/></filter></defs></svg>