<svg xmlns="http://www.w3.org/2000/svg" width="2231" height="1080" fill="none"><path fill-rule="evenodd" clip-rule="evenodd" d="M795.327 697.174c2.575 18.695 2.834 36.54-2.336 54.187-15.601 53.442-37.589 103.847-70.827 148.911-1.786 2.456-3.893 4.729-5.17 7.416-20.442 42.759-56.344 70.028-95.001 94.252-28.237 17.7-58.7 31.24-90.78 40-36.91 10.09-75.088 15.84-113.216 14.1-25.772-1.16-51.643-7.83-76.736-14.72-53.709-14.71-103.366-38.9-149.639-69.772-26.13-17.429-48.927-38.557-67.213-64.309-3.493-4.932-6.827-10.021-10.83-14.492-28.476-31.574-42.989-70.028-53.41-110.176-3.982-15.42-6.247-31.698-6.387-47.629-.51-63.63 8.264-126.272 23.955-187.876 2.944-11.558 7.266-23.236 13.345-33.427 43.069-72.174 99.393-131.153 174.152-171.158 32.968-17.666 67.413-31.431 104.423-37.779 13.765-2.365 27.818-2.874 40.494-4.102 8.714 9.243 5.799 18.725 5.799 27.398-.04 103.576-.249 207.171-.628 310.766-.07 18.205.708 36.062 10.26 51.692 19.404-.698 38.168-1.956 56.943-1.996 86.487-.15 172.975-.03 259.472.16 17.018.03 34.295-1.168 53.33 8.554z" fill="#FF5F60"/><path fill-rule="evenodd" clip-rule="evenodd" d="M795.326 697.175c-19.034-9.721-36.311-8.524-53.329-8.554-86.497-.189-172.985-.309-259.472-.159-18.775.04-37.539 1.297-56.943 1.996-9.552-15.631-10.33-33.487-10.261-51.693.38-103.595.589-207.19.629-310.765 0-8.674 2.915-18.156-5.799-27.399-12.676 1.228-26.73 1.737-40.494 4.103-37.01 6.348-71.455 20.112-104.423 37.779-74.76 40.004-131.084 98.983-174.152 171.158-6.079 10.19-10.4 21.868-13.345 33.427-15.69 61.604-24.464 124.246-23.955 187.875.14 15.931 2.405 32.21 6.388 47.63 10.42 40.147 24.933 78.602 53.409 110.175 4.003 4.472 7.336 9.56 10.83 14.492 18.285 25.753 41.083 46.881 67.213 64.309 46.273 30.871 95.93 55.061 149.639 69.771 25.093 6.89 50.964 13.56 76.735 14.72 38.129 1.74 76.307-4.01 113.217-14.1 32.08-8.76 62.543-22.3 90.78-40 38.657-24.223 74.559-51.491 95.001-94.251 1.277-2.687 3.383-4.959 5.17-7.416 33.238-45.063 55.226-95.468 70.827-148.911 5.17-17.646 4.911-35.492 2.335-54.187zm-361.08-418.772c2.266 66.785 1.816 131.064 1.966 195.303.13 64.159-.05 128.338.09 191.969 14.133 5.519 25.252 3.603 36.062 3.623 91.608.06 183.205.159 274.813-.419 23.586-.15 45.814 3.124 66.854 15.64 6.997 30.852 4.362 61.264-5.539 91.59-19.883 60.842-47.79 117.107-89.492 166.304-26.969 31.823-58.67 58.487-92.765 81.357-36.053 24.17-76.916 39.2-120.803 44.16-9.941 1.1-19.763 3.52-29.604 5.34-22.648 4.24-45.155 10.74-68.402 3.43-1.856-.58-4.002-.42-6.008-.24-31.88 2.41-61.814-7.47-91.249-16.88-52.99-16.95-102.327-42.02-147.033-75.445-40.274-30.123-71.495-67.751-91.288-114.246-9.872-23.124-19.623-46.35-28.217-69.966-9.003-24.704-13.185-50.378-13.575-76.886-1.108-78.722 14.094-153.991 46.603-225.656 4.491-9.891 10.13-19.763 17.297-27.837 19.384-21.799 40.145-42.361 59.828-63.92 23.296-25.462 49.816-46.882 79.061-64.978 43.937-27.179 90.979-47.061 141.254-59.278 18.795-4.592 37.589-5.29 60.147-2.965" fill="#1D262D"/><path fill-rule="evenodd" clip-rule="evenodd" d="M687.599 258.818c51.812 24.853 95.56 56.384 132.301 97.277 23.805 26.48 40.174 57.921 52.551 90.819 15.251 40.524 24.075 83.004 30.842 125.793.609 3.853.09 7.856.09 13.136-5.45 1.127-10.101 2.924-14.772 2.924-99.603.05-199.205-.06-298.818-.299-6.787 0-13.555-1.168-21.12-1.857 0-5.24-.889-9.352.169-12.856 3.224-10.54 6.648-21.13 11.01-31.271 34.126-79.52 63.001-160.997 90.2-243.112 4.352-13.136 7.117-27.139 17.547-40.554" fill="#36B66D"/><path fill-rule="evenodd" clip-rule="evenodd" d="M687.599 258.818c-10.43 13.415-13.195 27.419-17.547 40.554-27.199 82.115-56.074 163.592-90.2 243.113-4.362 10.141-7.786 20.731-11.009 31.271-1.058 3.503-.17 7.615-.17 12.856 7.566.688 14.333 1.856 21.12 1.856 99.613.24 199.215.349 298.818.299 4.671 0 9.322-1.796 14.772-2.924 0-5.28.519-9.283-.09-13.135-6.767-42.79-15.591-85.27-30.842-125.794-12.377-32.898-28.746-64.338-52.551-90.819-36.741-40.893-80.488-72.423-132.301-97.277zm233.72 345.141c-9.751 1.477-17.427 3.463-25.182 3.693-22.109.649-44.247.788-66.356.788-79.48 0-158.93-.159-238.391-.239-6.049 0-12.087.08-18.116-.07-22.408-.659-28.316-8.025-22.857-30.463 4.053-16.558 8.804-33.028 14.493-49.107 28.566-80.509 57.452-160.898 86.367-241.286 6.788-18.855 14.124-37.49 20.971-55.636 2.954-.758 5.27-2.225 6.627-1.587 49.398 23.037 96.399 49.667 136.144 87.865 28.616 27.528 53.849 56.923 65.467 95.999 2.256 7.606 7.167 14.343 10.331 21.72 22.527 52.351 35.393 106.509 30.502 168.323" fill="#1D262D"/><path fill-rule="evenodd" clip-rule="evenodd" d="M638.451 160.405c-39.256 109.683-77.663 216.991-116.061 324.309-8.684-1.107-6.288-7.336-6.308-11.378-.23-52.202-.15-104.394-.2-156.586-.06-55.236-.249-110.432-.23-165.638 0-5.839.899-11.638 1.278-16.249 9.243-8.325 18.805-6.279 27.209-4.701 31.451 5.938 62.592 13.364 94.312 30.243z" fill="#FFE238"/><path fill-rule="evenodd" clip-rule="evenodd" d="M638.452 160.405c-31.721-16.878-62.862-24.305-94.313-30.243-8.404-1.577-17.966-3.623-27.209 4.701-.379 4.611-1.277 10.41-1.277 16.249-.02 55.206.169 110.403.229 165.639.05 52.191-.03 104.383.2 156.585.02 4.042-2.376 10.271 6.308 11.379 38.398-107.318 76.805-214.627 116.062-324.31zM510.253 525.518c-12.397-13.555-15.142-29.285-16.1-45.245-.848-14.024-.25-28.137-.24-42.201.07-75.368-.119-150.746.4-226.124.189-27.059 1.786-54.148 3.294-81.207.848-15.192 6.976-21.919 21.868-24.085 7.846-1.168 16.19-1.437 24.005-.18 38.817 6.248 76.576 16.25 111.77 34.396 2.555 1.337 4.601 3.653 7.516 6.028-.609 3.813-.659 7.855-1.937 11.509-28.057 79.53-55.685 159.2-84.64 238.421-12.746 34.864-28.107 68.791-42.56 102.976-4.302 10.151-9.093 20.322-23.376 25.712m430.48-147.004c-4.222-1.627-6.678 4.182-4.103 7.037 43.04 47.67 28.217 120.413 42.481 178.185 1.327 5.39 9.472 5.35 10.829 0 14.24-56.075 16.31-159.829-49.207-185.222zm66.947 23.555c-5.42-3.693-11.651 3.404-8.647 8.654 21.547 37.589 21.757 78.043 33.847 118.387 1.93 6.408 11.22 6.538 13.08 0 12.38-43.488.46-100.59-38.28-127.041zM556.456 54.124C495.63 42.266 407.257 66.74 399.302 138.036c-.819 7.306 10.45 8.255 12.406 1.677 17.937-60.317 92.975-66.195 144.748-77.464 3.982-.859 4.072-7.327 0-8.125zM495.441.015c-19.294 1.867-34.895.17-53.43 8.145-18.964 8.155-33.497 19.244-46.183 35.254-4.372 5.51 1.437 15.53 8.225 10.65 13.275-9.542 27.837-18.436 42.51-25.692 15.061-7.456 33.516-18.276 49.756-21.919 3.563-.798 2.835-6.797-.878-6.438" fill="#1D262D"/><path d="M1500.88 593.969l38.28-202.344h58.39L1534.47 676h-58.99l-46.28-190.234L1382.91 676h-58.99l-63.08-284.375h58.39l38.48 201.953 46.88-201.953h49.61l46.68 202.344zM1741.5 676c-2.6-5.078-4.49-11.393-5.66-18.945-13.68 15.234-31.45 22.851-53.32 22.851-20.71 0-37.9-5.989-51.57-17.968-13.54-11.98-20.31-27.084-20.31-45.313 0-22.396 8.27-39.583 24.81-51.563 16.66-11.979 40.69-18.033 72.07-18.164h25.97v-12.109c0-9.766-2.54-17.578-7.61-23.437-4.95-5.86-12.83-8.79-23.64-8.79-9.5 0-16.99 2.279-22.46 6.836-5.34 4.558-8.01 10.808-8.01 18.75h-56.44c0-12.239 3.77-23.567 11.33-33.984 7.55-10.417 18.23-18.555 32.03-24.414 13.8-5.99 29.29-8.984 46.48-8.984 26.04 0 46.68 6.575 61.92 19.726 15.36 13.021 23.04 31.38 23.04 55.078v91.602c.13 20.052 2.93 35.221 8.4 45.508V676h-57.03zm-46.68-39.258c8.33 0 16.02-1.823 23.05-5.469 7.03-3.776 12.24-8.789 15.62-15.039v-36.328h-21.09c-28.26 0-43.3 9.766-45.12 29.297l-.19 3.32c0 7.032 2.47 12.826 7.42 17.383 4.95 4.558 11.72 6.836 20.31 6.836zm257.42-119.14c-7.68-1.042-14.45-1.563-20.31-1.563-21.35 0-35.35 7.227-41.99 21.68V676h-56.45V464.672h53.32l1.57 25.195c11.32-19.401 27.01-29.101 47.07-29.101 6.25 0 12.1.846 17.57 2.539l-.78 54.297zm217.58 54.687c0 32.552-7.42 58.659-22.27 78.32-14.71 19.532-34.63 29.297-59.76 29.297-21.36 0-38.61-7.422-51.76-22.265v99.609h-56.44V464.672h52.34l1.95 20.703c13.67-16.406 31.51-24.609 53.52-24.609 26.04 0 46.29 9.635 60.74 28.906 14.45 19.271 21.68 45.833 21.68 79.687v2.93zm-56.44-4.101c0-19.662-3.52-34.831-10.55-45.508-6.9-10.677-16.99-16.016-30.28-16.016-17.7 0-29.88 6.771-36.52 20.313V613.5c6.9 13.932 19.21 20.898 36.92 20.898 26.95 0 40.43-22.07 40.43-66.21z" fill="#000"/></svg>